<?xml version="1.0" encoding="utf-8"?>
<!DOCTYPE svg PUBLIC "-//W3C//DTD SVG 1.1//EN" "http://www.w3.org/Graphics/SVG/1.1/DTD/svg11.dtd">
<svg version="1.1" xmlns="http://www.w3.org/2000/svg" width="676px" height="392px" viewBox="0 0 676 392" preserveAspectRatio="xMidYMid meet">
 <g fill="#ffffff">
  <path d="M0 196 l0 -196 338 0 338 0 0 196 0 196 -338 0 -338 0 0 -196z m139.70 163.70 c16.10 -2.90 31.25 -6.70 47.30 -11.80 36.15 -11.50 66.25 -26.05 99.15 -48 14.95 -9.95 21.20 -14.70 71.35 -54.25 8.30 -6.55 10.55 -8.10 11.85 -8.15 2 0 2.05 0.25 2.05 7.65 0 3.25 0.05 6 0.15 6.10 0.10 0.10 1.60 0.35 3.35 0.55 l3.10 0.35 0 -2.15 0 -2.10 3.10 0.20 3.10 0.25 -2.20 -0.95 c-2.60 -1.10 -3.40 -0.85 -4.45 1.50 -0.65 1.45 -0.95 1.60 -2.90 1.60 l-2.15 0 -0.10 -11.10 -0.15 -11.15 -1.50 -0.70 c-4.85 -2.35 -10 0 -23.05 10.55 -12.65 10.20 -27.75 17.95 -41.35 21.15 -7.55 1.75 -12.65 2.35 -21.85 2.50 -17.80 0.25 -36.35 -3.35 -51.20 -9.95 -1.65 -0.70 -3.05 -1.25 -3.15 -1.15 -0.20 0.25 5.65 2.85 9.75 4.35 2.95 1.10 3.10 1.20 3.10 2.80 0 1.20 -0.25 1.70 -0.75 1.70 -0.40 0 -5.25 2.25 -10.75 5 -20.95 10.50 -39.85 18.50 -55 23.30 -4.30 1.35 -4.90 1.65 -3.35 1.65 1.65 0.05 1.85 0.20 1.85 1.30 0 0.70 0.10 1.25 0.25 1.25 0.65 0 10.45 -3.80 16.75 -6.50 8.65 -3.70 34.90 -16.65 46.60 -22.95 4.60 -2.50 8.85 -4.55 9.40 -4.55 0.60 0 3.70 0.65 6.90 1.45 6.55 1.65 14.15 2.85 20.85 3.30 8.65 0.55 8.75 0.60 8.75 2.45 0 1.60 -0.20 1.70 -9.35 6.70 -20.95 11.45 -53.10 27 -72.15 35 -26.15 10.90 -42.55 16 -58.15 18.10 -6.20 0.80 -6.35 0.80 -6.35 -1.20 0 -0.95 0.65 -3.25 1.45 -5.10 0.80 -1.90 1.90 -4.60 2.45 -5.95 l1 -2.55 -3.05 0.30 c-1.65 0.15 -3.10 0.50 -3.20 0.80 -0.10 0.25 -1.50 3.60 -3.05 7.40 -3.35 8.10 -3.25 8 -9.70 7.45 l-3.90 -0.30 0 -1.55 c0.05 -0.85 0.35 -2.10 0.75 -2.80 0.95 -1.65 0.95 -4.20 0 -6 -1.45 -2.75 -2.45 -2.95 -15.55 -3 l-11.95 -0.05 -0.15 3.50 -0.15 3.55 -2 0 c-3.45 0 -12.10 -5 -18.95 -10.95 -6.25 -5.40 -10.60 -11.45 -13.50 -18.80 -2.25 -5.65 -3 -9.45 -3.35 -17.60 l-0.30 -7.15 1.80 0 c1.70 0 1.95 0.20 3.15 2.65 5.20 10.25 15.15 20.30 25.70 25.95 12.55 6.70 32.40 9.40 51.50 6.95 7.65 -1 12.60 -1.90 11.15 -2 -0.40 -0.05 -0.65 -0.75 -0.65 -1.80 l0 -1.75 2.50 0 c2.45 0 2.50 0.05 2.50 1.50 0 1.75 -0.75 1.80 8 -0.55 2.90 -0.75 4.95 -1.40 4.65 -1.40 -0.40 -0.05 -0.65 -0.75 -0.65 -1.80 0 -0.95 -0.05 -1.75 -0.15 -1.75 -0.05 0 -0.90 0.25 -1.85 0.50 -3.50 1.05 -18.95 4.05 -27 5.25 -6.90 1.05 -10.15 1.25 -19.55 1.25 -12.30 0 -16.80 -0.50 -24.05 -2.80 -8.10 -2.55 -14.05 -6.35 -20.45 -13.05 -6.25 -6.55 -11 -14.85 -14.25 -24.90 -0.80 -2.35 -1.65 -4.20 -1.90 -4.10 -1.05 0.35 -2.25 8.50 -2.30 15.10 -0.15 15.85 6.45 31.25 17.85 41.75 5.60 5.15 15.05 11 21.30 13.15 0.75 0.30 0.85 1 0.85 5.65 l0 5.35 -3.20 -0.30 c-4.20 -0.40 -15.30 -4.15 -22.40 -7.55 -5.10 -2.45 -10.80 -5.95 -15.30 -9.25 -2.50 -1.90 -2.90 -1 -1.65 3.95 1.50 5.70 3 9.20 6 13.90 8.40 13.05 24.35 21.50 47.80 25.35 14.35 2.35 19.65 2.25 34.95 -0.55z m29.30 -69.20 c0 -0.30 -0.55 -0.40 -1.35 -0.20 -2 0.50 -2.05 0.70 -0.25 0.70 0.90 0 1.60 -0.25 1.60 -0.50z m315 -37.50 c0 -5.35 -0.20 -8.50 -0.50 -8.50 -0.30 0 -0.50 3.15 -0.50 8.50 0 5.35 0.20 8.50 0.50 8.50 0.30 0 0.50 -3.15 0.50 -8.50z m26.85 -4.35 c-0.05 -2.45 -0.15 -0.45 -0.15 4.35 0 4.80 0.10 6.80 0.15 4.40 0.10 -2.45 0.10 -6.35 0 -8.75z m14.15 4.35 c0 -5.35 -0.20 -8.50 -0.50 -8.50 -0.30 0 -0.50 3.15 -0.50 8.50 0 5.35 0.20 8.50 0.50 8.50 0.30 0 0.50 -3.15 0.50 -8.50z m40.50 0 c0 -5.35 -0.20 -8.50 -0.50 -8.50 -0.30 0 -0.50 3.15 -0.50 8.50 0 5.35 0.20 8.50 0.50 8.50 0.30 0 0.50 -3.15 0.50 -8.50z m12 0 c0 -5.35 -0.20 -8.50 -0.50 -8.50 -0.30 0 -0.50 3.15 -0.50 8.50 0 5.35 0.20 8.50 0.50 8.50 0.30 0 0.50 -3.15 0.50 -8.50z m-23.65 1.65 c-0.10 -0.80 -0.20 -0.15 -0.20 1.35 0 1.50 0.10 2.15 0.20 1.40 0.10 -0.80 0.10 -2 0 -2.75z m-50.35 2.10 c0 -0.80 -0.30 -1.25 -0.75 -1.25 -0.90 0 -0.95 0.20 -0.15 1.50 0.80 1.30 0.90 1.25 0.90 -0.25z m14.60 -4 c0 -1.65 -0.25 -3.55 -0.50 -4.25 -0.40 -0.95 -0.55 0 -0.55 4.25 0 4.25 0.15 5.20 0.55 4.25 0.25 -0.70 0.50 -2.60 0.50 -4.25z m21.40 3.50 c0 -0.80 -0.30 -1.25 -0.75 -1.25 -0.90 0 -0.90 0.25 -0.25 1.55 0.70 1.30 1 1.20 1 -0.30z m6.45 -3.85 c-0.05 -3.40 -0.10 -3.55 -0.55 -1.75 -0.45 1.70 -0.20 5.35 0.35 5.35 0.15 0 0.25 -1.65 0.20 -3.60z m42.40 -1.25 c-0.10 -0.80 -0.20 -0.15 -0.20 1.35 0 1.50 0.10 2.15 0.20 1.40 0.10 -0.80 0.10 -2 0 -2.75z m-169.10 1.65 c3.45 -1.15 7 -2.75 6.25 -2.80 -0.15 0 -1.50 0.45 -3 1.05 -9.40 3.55 -23 3.15 -33.70 -1 -2.20 -0.85 -4.05 -1.45 -4.20 -1.35 -0.15 0.20 3 1.45 9.05 3.60 4.95 1.80 7.90 2.15 15.10 2 5.40 -0.15 7.20 -0.40 10.50 -1.50z m-8.85 -5.10 c1.90 -0.75 2.20 -1.40 0.30 -0.70 -2.95 1.15 -12.10 0.35 -15.40 -1.35 -0.75 -0.40 -1.25 -0.50 -1.10 -0.20 0.55 0.85 5.90 2.65 9.05 3.05 3.25 0.35 4.65 0.20 7.15 -0.80z m-185.40 0.30 c-0.40 -0.25 -1.70 -0.50 -2.90 -0.50 -2.90 0 -9.35 -1.35 -11.95 -2.50 -1.20 -0.50 -2.15 -0.85 -2.15 -0.75 0 0.55 4.40 2.40 7.65 3.25 3.85 1 10.70 1.35 9.35 0.50z m272.15 -0.85 c-0.45 -0.80 -0.90 -1.50 -1 -1.60 -0.10 -0.10 -0.15 0.35 -0.15 1.10 0 0.80 0.35 1.35 0.90 1.50 0.45 0.15 0.90 0.25 1 0.30 0.05 0 -0.25 -0.55 -0.75 -1.30z m36.35 0.50 c-0.05 -0.25 -0.35 -0.95 -0.75 -1.65 l-0.70 -1.25 -0.05 1.65 c0 1.10 0.25 1.60 0.75 1.60 0.40 0 0.75 -0.15 0.75 -0.35z m-343 -5.65 l0 -2.95 -4.55 -0.15 -4.50 -0.15 0 -33 0 -33 6 -0.15 c3.60 -0.05 6.45 0.10 7.05 0.40 0.55 0.30 1 0.40 1 0.30 0 -0.15 -0.75 -0.65 -1.60 -1.10 -1.20 -0.60 -3.40 -0.95 -7.75 -1.10 -6.10 -0.25 -6.10 -0.25 -6.40 0.95 -0.15 0.65 -0.20 16.15 -0.15 34.45 l0.15 33.25 4.65 0.15 4.60 0.15 0 1.70 0 1.75 -19.75 0 -19.75 0 0 -1.75 0 -1.75 3 0 3 0 0 -64.50 0 -64.50 -4.55 0 -4.50 0 0.15 -1.90 0.15 -1.85 25.75 -0.10 c14.15 -0.05 28.05 0.10 30.85 0.40 4.55 0.40 9.90 1.75 12.30 3 0.45 0.30 0.85 0.35 0.85 0.20 0 -0.45 -4.40 -2.25 -8.25 -3.40 -3.35 -1.05 -4.75 -1.10 -33.35 -1.25 l-29.90 -0.15 0 2.95 c0 2.30 0.20 3.05 0.80 3.30 0.45 0.15 1 0.15 1.25 0 0.25 -0.15 1.95 -0.10 3.70 0.05 l3.25 0.35 0 63.25 0 63.30 -4.25 -0.25 -4.20 -0.20 -0.35 1.45 c-0.15 0.80 -0.15 2.20 0 3.15 l0.35 1.70 22.45 0 22.50 0 0 -3z m76.70 2 c14.65 -1.10 31.05 -3.65 40.15 -6.30 4.40 -1.25 12.85 -4.65 12.50 -5.05 -0.10 -0.10 -1.70 0.50 -3.55 1.30 -1.80 0.85 -4.80 1.95 -6.65 2.50 -6.15 1.85 -21.25 4.55 -25.25 4.55 -1.85 0 -1.90 -0.05 -1.90 -1.70 l0 -1.70 -4.45 2.45 -4.45 2.50 -6.40 0.40 c-16.25 1 -31.40 0.05 -37.05 -2.25 -1.05 -0.45 -1.65 -0.55 -1.40 -0.30 1.40 1.35 7.65 2.95 15 3.80 3.45 0.35 16.95 0.25 23.45 -0.20z m124.30 -0.65 c0 -0.10 -0.75 -0.80 -1.60 -1.65 l-1.65 -1.45 1.45 1.65 c1.40 1.50 1.80 1.85 1.80 1.45z m27.75 -11.10 c0 -3.45 -0.25 -5.30 -1.20 -7.90 -1.35 -4 -1.80 -4.20 -0.80 -0.35 1.45 5.50 1.45 11.05 0 16.35 -0.15 0.50 0.25 -0.10 0.85 -1.35 0.90 -1.80 1.10 -3.15 1.15 -6.75z m-194.10 4.15 c-0.80 -1.50 -0.95 -4.05 -1.20 -27.90 -0.25 -23.30 -0.40 -26.55 -1.15 -29 -0.95 -2.90 -3.15 -7.50 -3.55 -7.50 -0.15 0 0.10 0.70 0.55 1.55 2.45 4.75 2.40 4.15 2.70 32.20 l0.25 26.50 1.35 2.90 c0.75 1.55 1.50 2.85 1.65 2.85 0.15 0 -0.10 -0.75 -0.60 -1.60z m-25.35 -2 c-1.25 -2.90 -1.40 -7.05 -1.50 -32.45 -0.05 -20.35 -0.15 -24.45 -0.80 -25.85 -0.70 -1.50 -0.75 0.85 -0.60 24.25 0.10 19.70 0.30 26.65 0.85 29.15 0.70 3.40 2.15 7.25 2.55 6.90 0.10 -0.15 -0.10 -1.05 -0.50 -2z m243.15 -3.10 c0.55 -1.50 1.35 -4.50 1.80 -6.65 0.75 -3.65 0.75 -4.40 0 -8.55 -0.75 -4.50 -2.35 -9.40 -4.25 -13.15 -1.65 -3.20 -1.50 -2.20 0.30 1.95 0.90 2.15 2.05 5.70 2.50 7.85 1.25 6.05 0.55 15.25 -1.55 20.40 -0.20 0.45 -0.25 0.85 -0.10 0.85 0.15 0 0.75 -1.20 1.30 -2.70z m-59.75 0.25 c-0.40 -1.05 -0.70 -2.80 -0.60 -3.85 0.15 -1.85 0.55 -2.25 11.40 -10.85 10.85 -8.55 11.30 -8.90 13.30 -8.75 l2.05 0.15 -1.30 -1.75 c-2.85 -3.90 -10.15 -12.70 -16.55 -20 -3.70 -4.25 -7.35 -8.55 -8.10 -9.50 l-1.40 -1.75 0 1.60 c0 1.15 -0.35 1.80 -1.10 2.25 -1.10 0.60 -1.10 0.65 0.65 0.90 1.50 0.20 2.50 1.05 6.90 6.15 4.70 5.40 5.10 6.05 4.95 7.70 -0.15 1.70 -0.65 2.20 -6.05 6.50 -4.80 3.80 -6.25 4.65 -7.60 4.65 l-1.70 0 0.20 -8.85 c0.10 -4.90 0.05 -10.30 -0.10 -12.05 -0.25 -2.80 -0.40 -3.05 -1.10 -2.45 -0.45 0.35 -1.90 1.20 -3.30 1.85 -1.35 0.65 -3.05 1.70 -3.75 2.35 -1.20 1.10 -1.20 1.15 -0.15 1.15 0.55 0 1.20 0.35 1.35 0.80 0.15 0.45 0.30 6 0.30 12.40 0 12.75 -0.05 13 -3.10 14.45 -1.10 0.50 -3.10 0.75 -6 0.80 -4.70 0 -6.90 0.45 -12.05 2.40 -4.50 1.75 -4 1.95 0.70 0.30 5.70 -2.05 15.75 -2.20 20.65 -0.35 0.75 0.30 0.80 -1.15 0.80 -16.05 l0 -16.30 2.15 0.15 2.10 0.15 0.30 12.75 c0.45 16.10 1.50 23.45 4.50 30.30 0.55 1.35 1.25 2.95 1.50 3.60 0.25 0.60 0.55 1.10 0.70 1.10 0.15 0 -0.10 -0.90 -0.55 -1.95z m-48.50 -5.90 c6.50 -3.20 11.70 -5.90 11.60 -6 -0.15 -0.20 -23.30 11.15 -23.75 11.65 -0.70 0.65 1.60 -0.40 12.15 -5.65z m249.20 -29.50 c-0.75 -0.10 -2.10 -0.10 -3 0 -0.90 0.10 -0.30 0.20 1.35 0.20 1.65 0 2.40 -0.10 1.65 -0.20z m41.60 -7.85 c0 -0.10 0.70 -2.50 1.55 -5.35 3 -10.05 4.95 -21.15 4.95 -27.95 0 -1.85 0.15 -4.75 0.30 -6.45 l0.35 -3.05 1.90 0 c3.80 0 6.90 4.30 10.65 14.70 1.05 2.95 2.10 -3.15 3.55 -20 0.80 -9.70 0.55 -17.85 -0.75 -27.35 -3 -21.35 -13.40 -35.80 -29.80 -41.45 -6.85 -2.35 -12 -3.10 -21.45 -3.05 -11.85 0.05 -19.75 1.15 -35.25 5 -6.85 1.65 -7.95 2.10 -19.50 8.05 -6.70 3.40 -13 6.70 -14 7.25 -0.95 0.55 -5.10 2.85 -9.25 5.10 -14.50 8 -30.95 18.10 -46.50 28.65 -8.25 5.60 -26.35 18.80 -29.65 21.65 -1.15 1.05 -2.15 1.45 -3.50 1.45 l-1.85 0 0 -16.35 0 -16.40 -3.35 -0.15 -3.40 -0.15 0 1.50 c0 0.80 -0.15 1.80 -0.30 2.25 -0.45 1.15 -3.30 1 -5.75 -0.25 -1.15 -0.55 -1.95 -0.85 -1.80 -0.60 0.15 0.25 1.65 1.10 3.30 1.85 3.40 1.65 4.05 1.45 5.30 -1.55 0.65 -1.55 0.90 -1.70 2.60 -1.55 l1.90 0.15 0.15 27.40 0.10 27.35 -2.20 0 -2.20 0 -0.25 -8.85 c-0.25 -8.95 -1.05 -14.35 -3.10 -20.40 -1.10 -3.20 -4.10 -9.75 -4.50 -9.75 -0.15 0 0.30 1.10 0.95 2.40 1.65 3.30 3.60 9.45 4.55 14.55 1.35 7.35 1.70 6.60 -6.20 13.70 -5.95 5.40 -7.20 6.30 -8.80 6.45 l-1.90 0.15 4.95 5.45 4.95 5.50 0.25 -1.80 c0.20 -1.40 0.75 -2.20 2.75 -3.70 2.40 -1.90 2.65 -1.95 7.25 -2.20 l4.75 -0.25 0.15 -2.10 0.15 -2.10 7.85 -3.30 c4.30 -1.85 8.70 -3.50 9.75 -3.60 l1.85 -0.30 0 -2.65 0 -2.70 -2.50 0 -2.50 0 0 -2.75 0 -2.75 7 0 c6.90 0 7 0 7 -1.10 0.05 -0.80 0.70 -1.55 2.15 -2.45 1.15 -0.75 4.45 -2.85 7.35 -4.70 13.30 -8.55 41.30 -25.70 46.25 -28.30 10.60 -5.60 26 -11.70 34.75 -13.85 2.35 -0.60 7.50 -1.40 11.50 -1.85 19.90 -2.20 37 2.80 47.85 13.85 3.95 4.05 8.45 13.10 10.90 21.90 2.30 8.40 2.90 13.90 2.60 24 -0.25 8.90 -0.80 12.95 -2.70 20.40 -0.80 3.15 -0.80 3.15 -2.50 3 -1.55 -0.15 -1.90 -0.45 -3.60 -3.55 -4.10 -7.50 -10.20 -14.40 -17.05 -19.45 -5.30 -3.85 -5.70 -3.95 -2 -0.50 1.80 1.70 3.40 3.05 3.55 3.10 0.15 0 2.20 2.30 4.50 5.15 4.95 6 8.85 12.05 12.50 19.50 1.45 2.95 2.80 5.35 3.05 5.35 0.20 0 0.40 -0.10 0.40 -0.20z m-409.90 -20.40 c-0.35 -0.35 -0.60 -1.45 -0.60 -2.45 l0 -1.85 -2 0.75 c-2.55 1 -2.55 1.95 0 2.65 1.05 0.30 2.10 0.75 2.25 1 0.15 0.30 0.45 0.50 0.65 0.50 0.15 0 0.05 -0.25 -0.30 -0.60z m-17.85 -2.90 c1.30 -0.60 1.55 -0.85 0.75 -0.70 -0.70 0.15 -4.85 0.30 -9.25 0.35 l-8 0.10 0.05 -1.85 c0 -1.05 0.05 -12.95 0.10 -26.45 l0.10 -24.55 7.90 0.20 c4.30 0.15 8.50 0.50 9.25 0.80 0.80 0.35 1.25 0.40 1.10 0.10 -0.75 -1.20 -5.60 -2 -12.55 -2 -6 0 -7.15 0.10 -7.40 0.80 -0.40 1.05 -0.40 53.45 0.05 53.85 0.15 0.20 3.80 0.35 8.10 0.35 6.65 0 8.10 -0.15 9.80 -1z m5.40 -5.35 c1.05 -2.30 1.10 -3.20 1.25 -18.55 0.20 -16.50 -0.15 -21.55 -1.70 -24.10 -0.45 -0.70 -0.65 -0.90 -0.50 -0.45 0.10 0.45 0.30 10.35 0.35 22 0.10 15.85 -0.05 21.50 -0.50 22.35 -0.30 0.60 -0.45 1.10 -0.30 1.10 0.15 0 0.80 -1.05 1.40 -2.35z m19.10 -1.15 c1.05 -1.10 1.85 -2 1.70 -2 -0.15 0 -1.15 0.90 -2.20 2 -1.05 1.10 -1.85 2 -1.70 2 0.15 0 1.15 -0.90 2.20 -2z m149.05 -2.50 c-1.25 -3.45 -2.25 -9.15 -2.25 -13.25 0 -3.80 1.25 -10.35 2.65 -13.85 0.70 -1.75 0.95 -2.70 0.55 -2.20 -0.40 0.55 -1.20 2.25 -1.80 3.75 -3.35 8.95 -3.15 17.75 0.65 26.70 1.45 3.40 1.55 2.65 0.20 -1.15z m-144.05 -4.55 c4.25 -8.40 4.35 -20.90 0.20 -29 -1.40 -2.85 -1.50 -2.40 -0.20 0.95 1.75 4.30 2.45 9.10 2.10 15.10 -0.30 5.65 -1.35 10.50 -2.90 13.60 -0.55 1.05 -0.85 1.90 -0.70 1.90 0.10 0 0.80 -1.15 1.50 -2.55z m252.25 -1.25 c0 -1.65 -1.65 -1.50 -1.90 0.20 -0.15 0.85 0.10 1.10 0.85 1.10 0.80 0 1.05 -0.30 1.05 -1.30z m110.95 -2.65 c-3.50 -2.20 -12.15 -5.90 -17.70 -7.50 -18.90 -5.60 -39.95 -5.05 -68 1.70 -6.65 1.60 -20.65 5.60 -21.20 6.05 -0.10 0.10 2.40 0.20 5.60 0.20 5.50 0 5.85 -0.05 5.85 -1 0 -0.55 0.10 -1 0.25 -1 0.15 0 2.35 -0.45 4.90 -1 16.20 -3.45 25.85 -4.55 42.80 -4.85 17.65 -0.30 27.70 0.75 39.20 4.10 2.45 0.70 2.85 1 2.85 2.05 0 1.10 0.20 1.20 2.50 1.20 1.80 0 2.60 0.20 2.80 0.75 0.20 0.40 0.80 0.75 1.35 0.75 0.80 0 0.45 -0.35 -1.20 -1.45z m-193.95 -3.15 c-2.55 -5.45 -3.50 -9.15 -3.80 -14.90 -0.25 -3.60 -0.10 -5.30 0.45 -7 0.65 -1.85 0.70 -2.10 0.05 -1.25 -2.90 3.90 -1.90 13.05 2.50 22.50 1.25 2.60 2.35 4.75 2.50 4.75 0.10 0 -0.65 -1.85 -1.70 -4.10z m2.65 -27.45 c3.10 -0.80 9.60 -0.35 12.50 0.95 3.35 1.50 2.95 0.80 -0.50 -0.80 -2.45 -1.15 -3.55 -1.35 -7.15 -1.35 -4.60 0 -7.20 0.95 -9.25 3.30 -0.85 1 -0.75 0.95 0.65 -0.20 0.90 -0.70 2.60 -1.60 3.75 -1.90z m-175.65 -0.60 c0 -0.10 -0.75 -0.80 -1.60 -1.65 l-1.65 -1.45 1.45 1.65 c1.40 1.50 1.80 1.85 1.80 1.45z m196.05 -2.65 c-1.50 -0.70 -4.65 -1.85 -7 -2.55 -7.80 -2.35 -17.70 -1.70 -24.80 1.70 -1.35 0.65 -2.05 1 -1.50 0.85 6 -1.95 8 -2.30 14.30 -2.55 7.55 -0.30 12.85 0.45 17.90 2.60 3.70 1.55 4.55 1.50 1.10 -0.05z"/>
  <path d="M105.50 334.50 l0 -2 2 0 2 0 0 2 0 2 -2 0 -2 0 0 -2z"/>
  <path d="M122.30 336.10 c-0.15 -0.25 -0.40 -1.95 -0.60 -3.75 l-0.35 -3.35 3.65 0 3.65 0 -0.25 2.45 c-0.35 3.60 -1.45 5.05 -3.90 5.05 -1.05 0 -2.05 -0.20 -2.20 -0.40z"/>
  <path d="M134.50 333.25 c0 -1.70 0.85 -4.25 1.65 -4.80 0.25 -0.20 2.20 -0.45 4.40 -0.65 4.35 -0.35 9.05 -1.15 18.20 -3.10 20.65 -4.45 76.95 -29.15 112.05 -49.25 1.55 -0.85 3.30 -1.45 4.40 -1.45 1.70 0 1.80 0.10 1.80 1.65 0 1.05 -0.35 1.80 -0.95 2.20 -4.25 2.65 -18.65 10.75 -27.05 15.25 -15.75 8.45 -29.50 14.90 -40.20 19 -3.95 1.50 -5.20 2 -11.80 5 -5.15 2.35 -17.60 7.05 -25.30 9.60 -12.65 4.10 -30.55 8.30 -35.55 8.30 -1.55 0 -1.65 -0.10 -1.65 -1.75z"/>
  <path d="M105.20 323.80 c-0.15 -0.40 -0.20 -1.45 -0.10 -2.40 0.15 -1.60 0.25 -1.65 2.55 -1.80 l2.35 -0.15 0 2.50 0 2.55 -2.25 0 c-1.50 0 -2.35 -0.25 -2.55 -0.70z"/>
 </g>
 <g fill="#ed2e38">
  <path d="M120.10 328.70 c-1.25 -0.85 -1.55 -4.05 -0.50 -5.10 0.90 -0.90 3.10 -0.80 2.70 0.15 -0.20 0.60 0.25 0.75 2.35 0.80 3.80 0.10 4.55 -0.05 5.20 -0.90 0.55 -0.75 0.65 -0.70 0.95 0.05 0.40 1.10 -0.10 4.20 -0.85 5.10 -0.85 1 -8.35 0.95 -9.85 -0.10z"/>
  <path d="M137 327.15 c0 -1.80 0.95 -4.65 1.50 -4.65 0.25 0 0.80 -0.15 1.25 -0.35 0.70 -0.25 0.80 -0.10 0.50 0.80 -0.30 0.95 -0.15 1.05 0.85 0.85 0.65 -0.15 2.30 -0.40 3.65 -0.55 16.10 -1.90 40.45 -10.25 73.75 -25.25 17.10 -7.70 65 -32.20 64.30 -32.85 -0.10 -0.15 -0.90 -0.25 -1.80 -0.25 l-1.65 -0.05 1.45 -0.75 c0.90 -0.45 3.40 -0.85 6.35 -1 l4.85 -0.25 0 1.75 c0 1.45 -0.25 1.85 -1.60 2.55 -0.90 0.45 -3.10 1.65 -4.90 2.65 -1.80 1 -5.15 2.85 -7.50 4.10 -2.35 1.25 -6.05 3.25 -8.25 4.50 -4.75 2.60 -36.55 18.50 -43.05 21.50 -39.15 18 -65.90 26.95 -85.15 28.40 l-4.55 0.35 0 -1.50z"/>
  <path d="M84.25 320.35 c-14 -7.40 -23.25 -17.10 -28.15 -29.60 -2.25 -5.75 -3.15 -10.15 -3.45 -17 -0.25 -5.50 0.35 -14.45 1 -15.10 0.15 -0.15 1.45 -0.30 2.90 -0.35 l2.65 -0.05 2.75 5.55 c3.70 7.25 6.95 12.10 11.50 16.85 6.80 7.10 12.30 10.50 22.05 13.50 12.40 3.85 27.95 5.10 39.95 3.20 2.90 -0.50 6.05 -0.85 7 -0.85 5.05 0 35.55 -7.90 38.25 -9.90 0.30 -0.25 1.55 -0.75 2.80 -1.10 1.25 -0.35 2.50 -0.85 2.75 -1.05 0.30 -0.20 2.30 -1.10 4.50 -1.95 7 -2.80 10.65 -4.50 28 -13.30 21.50 -10.85 22.45 -11.35 22.65 -11.80 0.25 -0.60 4 -0.45 6.15 0.20 1.30 0.35 1.95 0.85 1.95 1.45 0 0.55 -0.35 0.85 -0.85 0.85 -0.50 -0.05 -4.50 1.90 -8.90 4.30 -11.85 6.45 -37.80 19.25 -47.25 23.25 -10.90 4.60 -18.30 7.10 -28.95 9.80 -19.05 4.75 -28.80 6 -43.80 5.55 -15.20 -0.40 -26.10 -2.80 -35.25 -7.70 -10.55 -5.65 -20.50 -15.70 -25.70 -25.95 -0.70 -1.45 -1.45 -2.65 -1.65 -2.65 -0.50 0 0.30 10.95 1.05 14.50 3.15 14.60 13.95 27.50 29.65 35.45 3.50 1.75 4.15 1.85 4.15 0.80 0 -0.40 0.35 -0.75 0.75 -0.75 0.60 0 0.75 0.70 0.75 3.25 l0 3.25 -2.10 0 c-1.60 0 -3.40 -0.70 -7.15 -2.65z m88.50 -28.85 c0.65 -0.25 0.70 -0.45 0.25 -0.45 -0.40 0 -1.20 0.20 -1.75 0.45 -0.65 0.25 -0.70 0.45 -0.25 0.45 0.40 0 1.20 -0.20 1.75 -0.45z"/>
  <path d="M275 240.85 c0 -0.85 0.40 -1.60 1.15 -2 0.60 -0.40 9.55 -5.50 19.85 -11.35 10.30 -5.90 27.15 -15.70 37.45 -21.85 10.25 -6.15 18.85 -11.15 19.05 -11.15 0.20 0 0.65 -0.30 0.95 -0.70 0.35 -0.40 1.55 -1.20 2.70 -1.80 3.60 -1.85 5.05 -2.70 7.30 -4.35 1.20 -0.90 2.45 -1.65 2.75 -1.65 0.30 0 1.25 -0.65 2.10 -1.45 0.85 -0.80 2.75 -2.05 4.25 -2.80 3.55 -1.75 7.75 -4.65 7.55 -5.25 -0.05 -0.30 0.45 -0.50 1.10 -0.50 0.85 0 1.75 0.65 2.90 2.10 0.90 1.20 4.30 5.10 7.55 8.80 5.25 5.95 5.85 6.85 5.85 8.50 0 2.05 0.45 1.60 -10.55 9.90 -3.90 2.95 -5.25 3.70 -6.65 3.70 -1.70 0 -1.75 -0.10 -2.10 -2.25 -0.40 -2.70 0 -4.55 1.10 -4.95 0.65 -0.25 0.75 -0.10 0.55 0.70 -0.15 0.65 -0.05 0.90 0.30 0.65 1.10 -0.65 11.35 -8.75 11.65 -9.20 0.10 -0.25 -2.05 -3.05 -4.85 -6.30 -2.80 -3.25 -5.15 -6 -5.25 -6.05 -0.05 -0.10 -0.60 -0.05 -1.20 0.15 -0.75 0.25 -1 0.65 -0.85 1.25 0.30 1.25 -0.55 1.50 -4.70 1.50 l-3.45 0 0 2.15 c0 1.65 -0.30 2.45 -1.10 3.15 -0.60 0.50 -0.95 0.70 -0.75 0.45 0.15 -0.30 0.10 -0.80 -0.05 -1.10 -0.25 -0.40 -1.85 0.30 -4.85 2.20 -6.85 4.20 -42.20 25.50 -49.25 29.65 -3.45 2 -8.40 4.95 -11 6.50 -2.60 1.55 -7.90 4.65 -11.75 6.85 -3.85 2.20 -7.45 4.30 -8 4.60 -0.80 0.50 -0.55 0.55 1.50 0.30 l2.50 -0.30 -2.15 1.25 c-1.75 1.05 -3.15 1.35 -6.90 1.60 l-4.70 0.35 0 -1.30z"/>
  <path d="M365.90 215.65 c-1.85 -0.30 -1.80 -1.40 0.10 -2.05 0.80 -0.30 2.05 -1.10 2.75 -1.80 2.10 -2.10 2.85 -1.75 2.65 1.35 l-0.15 2.60 -2 0.05 c-1.10 0.05 -2.60 -0.05 -3.35 -0.15z"/>
  <path d="M620.45 182.15 c-3.80 -9.15 -10.05 -17.05 -19.45 -24.60 -6.50 -5.20 -9.50 -7.20 -9.50 -6.25 0 1.05 -1.40 0.20 -2.15 -1.35 -0.55 -1.05 -1.10 -1.25 -4.10 -1.50 -1.95 -0.20 -4.15 -0.55 -5 -0.75 -1.40 -0.40 -1.35 -0.45 1 -0.70 l2.50 -0.25 -3 -0.95 c-3.35 -1 -10.80 -2.65 -14.25 -3.10 -1.25 -0.15 -2.80 -0.40 -3.50 -0.55 -2.45 -0.55 -26.80 -0.70 -31.25 -0.20 -2.45 0.30 -5.75 0.65 -7.25 0.80 -3.95 0.40 -6.20 0.70 -11.25 1.55 -5.35 0.90 -16.35 3.15 -16.60 3.40 -0.10 0.05 1.60 0.10 3.70 0 l3.90 -0.15 -3.75 0.95 c-2.80 0.70 -5.50 0.95 -10.60 1 l-6.90 0 0 -1.70 c0 -1.05 0.30 -1.80 0.75 -2 4.40 -1.65 29.65 -6.60 40 -7.80 23.25 -2.70 49.05 -0.75 61.50 4.65 4.30 1.90 14.70 8.05 19.75 11.75 6.80 5 12.95 12 16.90 19.20 0.95 1.70 1.90 3.35 2.10 3.55 0.35 0.40 1.45 -3.40 2.80 -9.90 1.10 -5.55 1.35 -19.65 0.40 -25.25 -1.55 -9.10 -3.95 -16.25 -8.05 -24 -5.40 -10.30 -17.05 -17.75 -31.60 -20.25 -4.35 -0.75 -15 -1.10 -17.30 -0.60 -0.55 0.15 -2.70 0.40 -4.75 0.60 -9.35 0.90 -27.35 7.35 -42.25 15.20 -4.95 2.60 -32.95 19.75 -46.25 28.30 -2.90 1.85 -6.20 3.95 -7.35 4.70 -2.50 1.55 -2.70 2.15 -0.65 1.70 0.85 -0.15 1.50 -0.10 1.50 0.05 0 0.85 -3.80 1.80 -7.25 1.80 l-3.75 0 0 -1.85 c0 -1.85 0.10 -1.95 4.90 -4.85 4.60 -2.80 16.80 -10.35 33.10 -20.45 26.25 -16.35 31.30 -19.10 42.65 -23.35 12.35 -4.65 25.30 -6.85 39.10 -6.60 16.45 0.25 28.70 5 38.40 14.80 3 3.05 4.15 4.70 6.75 9.85 1.70 3.40 3.10 6.55 3.10 6.95 0 0.45 0.20 1 0.50 1.30 0.80 0.80 3.35 11.55 4 16.90 0.95 7.45 0.35 22 -1.15 29.30 -0.70 3.15 -1.70 7.40 -2.30 9.40 l-1.10 3.60 -3 0 -3 0 -1 -2.35z"/>
  <path d="M421.30 174.25 c-0.45 -0.65 -0.80 -1.85 -0.80 -2.65 0 -1.25 0.45 -1.80 3.15 -3.55 2.25 -1.45 3.70 -2.05 5 -2.05 l1.85 0 0 3 c0 1.65 -0.20 3 -0.45 3 -0.20 0 -1.40 0.80 -2.60 1.75 -2.70 2.15 -4.95 2.35 -6.15 0.50z"/>
  <path d="M437.60 163.95 l0.15 -4.60 5.90 -3.65 c4.75 -2.95 6.35 -3.70 7.90 -3.70 1.05 0 1.95 0.25 1.95 0.50 0 0.30 0.45 0.50 1 0.50 0.75 0 1 0.35 1 1.25 0 1 0.25 1.25 1.25 1.25 1.20 0 1.25 0.10 1.25 3.20 0 2.40 -0.20 3.25 -0.75 3.50 -0.50 0.20 -0.75 -0.05 -0.75 -0.75 0 -0.85 -0.20 -0.95 -1.10 -0.65 -3.05 0.90 -16.40 6.85 -16.40 7.25 0 0.25 -0.35 0.45 -0.75 0.45 -0.65 0 -0.75 -0.75 -0.65 -4.55z"/>
 </g>
 <g fill="#ed1b23">
  <path d="M92.70 344.35 c-0.10 -0.35 -0.15 -7.90 -0.10 -16.85 l0.15 -16.15 13.25 0 c7.30 0 13.75 0.15 14.40 0.35 3.75 1.25 3.80 12.35 0 13.75 -1 0.35 -1 0.40 0.25 1.20 1.60 1.05 2.35 3.35 2.75 8.60 l0.35 4.25 2.65 -6.70 c1.50 -3.70 2.75 -7.05 2.80 -7.40 0.05 -0.35 0.45 -1.30 0.85 -2.15 0.45 -0.80 1.75 -3.95 2.95 -7 1.20 -3 2.45 -5.80 2.75 -6.15 0.30 -0.35 2.35 -0.75 4.65 -0.95 l4.10 -0.30 0 1.90 c0 1.85 -0.75 3.75 -10.70 27.25 -2.45 5.85 -2.45 5.80 -7.65 5.95 -1.45 0 -2.65 0.30 -2.65 0.55 0 0.30 -2.65 0.50 -6.95 0.50 -7.95 0 -7.55 0.25 -7.60 -4.65 0 -3.40 -0.85 -6.40 -1.80 -6.75 -0.50 -0.15 -0.65 1.20 -0.65 5.60 l0 5.80 -6.75 0 c-5.05 0 -6.85 -0.15 -7.05 -0.65z m15.80 -22.30 c0 -0.50 -0.40 -1.05 -0.95 -1.20 -0.70 -0.15 -0.90 0.05 -0.80 0.85 0.15 1.35 0.10 1.30 1 1.30 0.40 0 0.75 -0.40 0.75 -0.95z"/>
 </g>
 <g fill="#2e3092">
  <path d="M118.25 360.65 c-7.85 -0.30 -20.10 -2 -25.50 -3.45 -8.55 -2.35 -14.35 -4.50 -17.90 -6.55 -1.05 -0.65 -2 -1.15 -2.15 -1.15 -0.15 0 -1.55 -0.90 -3.15 -1.95 -3.95 -2.70 -8.15 -6.60 -10.70 -10 -3.70 -4.85 -7.35 -13.50 -7.35 -17.40 0 -1.55 0.10 -1.65 1.65 -1.65 1.20 0 2.90 0.80 5.90 2.80 8.40 5.60 17.85 9.70 27.85 12.20 l6.60 1.70 0 4.40 0 4.40 6 0 5.95 0 0.15 -3.35 0.15 -3.40 2 0 c1.40 0 2 0.25 2.10 0.75 0.75 5.90 0.90 6 7.35 6 2.80 0 5.30 -0.15 5.50 -0.35 0.20 -0.25 1.85 -0.65 3.70 -0.90 l3.35 -0.50 1.50 -3 c1.65 -3.30 1.05 -3.05 9.50 -4.25 13.45 -1.95 34.65 -8.65 55.50 -17.45 4.40 -1.90 9.70 -4.05 11.75 -4.80 14.20 -5.30 39.65 -18.15 62.25 -31.40 14.60 -8.55 31.75 -19.45 31.75 -20.15 0 -0.40 0.60 -0.80 1.40 -1 14.60 -3.15 28.45 -10.35 45.80 -23.85 10.25 -7.95 11.45 -8.55 16.80 -8.60 l4.25 0 0.10 4 0.10 4 -5.75 4.50 c-3.20 2.50 -6.95 5.40 -8.40 6.55 -1.40 1.10 -5.35 4.25 -8.80 6.95 -3.45 2.70 -7.50 5.90 -9 7.10 -1.50 1.20 -4.70 3.65 -7.05 5.55 -2.40 1.85 -7.20 5.65 -10.75 8.45 -6.25 4.95 -11.75 9.15 -20.30 15.45 -4.25 3.15 -23.65 16.20 -24.10 16.20 -0.10 0 -1.55 0.85 -3.15 1.90 -1.60 1.05 -3.90 2.45 -5.15 3.10 -1.25 0.70 -2.60 1.50 -3 1.80 -0.40 0.30 -1.85 1.20 -3.25 1.95 -1.35 0.75 -3.85 2.15 -5.50 3.10 -4.50 2.50 -27.45 13.80 -31.75 15.55 -28.70 11.95 -54 19.60 -82.05 24.80 -12.40 2.35 -13.45 2.40 -24.20 1.95z"/>
  <path d="M257.85 262.15 c-1.65 -0.45 -0.75 -1.90 1.30 -2.05 1.70 -0.15 1.85 -0.05 1.85 1.10 0 1.35 -0.80 1.55 -3.15 0.95z"/>
  <path d="M146.85 243.15 c-0.20 -0.15 -0.35 -1.05 -0.35 -2 l0 -1.65 5 0 c4.60 0 5 0.05 5 1 0 0.80 -0.40 1 -2.85 1.15 l-2.90 0.15 2.90 0.10 c1.55 0.05 2.85 0.30 2.85 0.55 0 0.70 -8.95 1.40 -9.65 0.70z"/>
  <path d="M186 242.80 c0 -0.40 0.40 -0.85 0.90 -0.95 0.80 -0.20 0.80 -0.25 0 -0.30 -0.55 -0.05 -0.90 -0.45 -0.90 -1.05 0 -0.80 0.35 -1 1.75 -1 1.70 0 1.75 0.05 1.75 2 0 1.95 -0.05 2 -1.75 2 -1.20 0 -1.75 -0.25 -1.75 -0.70z"/>
  <path d="M458 225 c0 -0.95 0.35 -1 8.50 -1 8.15 0 8.50 0.05 8.50 1 0 0.95 -0.35 1 -8.50 1 -8.15 0 -8.50 -0.05 -8.50 -1z"/>
  <path d="M482 225 c0 -0.95 0.35 -1 8.25 -1 6.70 0 8.25 0.15 8.25 0.70 0 1.15 -1.20 1.30 -9.05 1.30 -7.10 0 -7.45 -0.05 -7.45 -1z"/>
  <path d="M380.35 223.40 c-1.70 -3.65 -2.50 -15.25 -1.15 -16.35 0.55 -0.45 0.75 -0.45 0.90 0 0.15 0.40 2.15 -0.85 5.20 -3.15 10.30 -7.75 10.70 -8.10 10.40 -9 -0.20 -0.70 0 -0.90 0.90 -0.90 1.15 0 2.40 1.05 3 2.50 0.65 1.65 3.45 5 4.15 5 0.40 0 0.75 0.45 0.75 0.95 0 0.55 0.25 1.15 0.50 1.30 0.30 0.15 0.50 1.25 0.50 2.40 -0.05 1.90 -0.25 2.25 -2.35 3.85 -2.25 1.65 -5.90 4.55 -15 11.75 -4.90 3.85 -6.60 4.25 -7.80 1.65z"/>
  <path d="M419.15 171.65 c-0.80 -1.75 -1.10 -1.90 -2.90 -1.90 -1.95 0 -2 -0.05 -2.15 -1.85 -0.15 -1.85 -0.15 -1.90 1.60 -1.90 0.95 0 1.80 -0.20 1.90 -0.40 0.10 -0.25 2.10 -2.15 4.45 -4.25 3.45 -3.05 4.65 -3.85 5.90 -3.85 l1.55 0 0 5.25 c0 3.15 0.20 5.25 0.50 5.25 0.30 0 0.50 0.30 0.50 0.70 0 0.40 0.55 0.85 1.25 1 0.80 0.20 1.25 0.65 1.25 1.30 0 0.80 -0.35 1 -1.65 1 -0.90 0 -2.15 0.35 -2.75 0.80 -1.40 0.95 -2.25 0.40 -0.90 -0.55 0.85 -0.65 1.65 -4.75 0.90 -4.75 -0.15 0 -1.70 0.95 -3.45 2.10 -2.25 1.40 -3.05 2.20 -2.65 2.60 0.85 0.85 0.55 1.30 -1 1.30 -1.20 0 -1.65 -0.35 -2.35 -1.85z"/>
  <path d="M437.30 161.20 c-0.15 -0.45 -0.30 -3.50 -0.25 -6.85 l0 -6.10 2.55 -2 c25.85 -20.20 55.15 -39.70 78.20 -52 2.45 -1.30 5.15 -2.80 5.95 -3.25 3.65 -2.10 7.20 -4 17.60 -9.30 10.10 -5.15 11.75 -5.85 18 -7.40 15.35 -3.80 25.85 -5.30 37.70 -5.30 12.55 0 20.15 1.50 28.10 5.55 7.20 3.65 12.30 9.05 16.30 17.20 5 10.15 6.60 19.45 6.70 38 0 9.95 -0.65 21.05 -1.45 23.90 -0.20 0.60 -0.80 0.85 -1.95 0.85 -1.50 0 -1.85 -0.25 -2.80 -2.05 -1.35 -2.75 -4.75 -6.30 -6.95 -7.45 -1.75 -0.90 -1.85 -1.15 -2.45 -4.60 -0.55 -3.35 -2.10 -9.10 -3.80 -14.15 -0.85 -2.60 -4.70 -10 -6.80 -13.10 -1.75 -2.60 -7.60 -8.60 -10.55 -10.85 -4.85 -3.65 -12.50 -7.45 -17.75 -8.85 -0.90 -0.25 -2.50 -0.70 -3.50 -0.95 -1.05 -0.30 -4.90 -0.85 -8.55 -1.25 -8.65 -0.95 -16.45 -0.15 -27.85 2.75 -6.70 1.75 -21.40 7.50 -24.35 9.55 -0.70 0.55 -1.55 0.95 -1.80 0.95 -0.45 0 -8.50 5.25 -21.60 14.10 -4.75 3.25 -10.45 6.90 -10.70 6.90 -0.15 0 -2 1.10 -4.15 2.40 -2.15 1.35 -4.45 2.75 -5.10 3.15 -1 0.55 -6.60 4.15 -12.10 7.70 -0.45 0.30 -1.80 1.15 -3 2 -1.20 0.80 -2.55 1.70 -3 2 -4.65 2.85 -7.95 5.35 -7.95 6 0 0.60 -0.70 0.75 -3.25 0.75 -2.45 0 -3.25 0.15 -3.25 0.70 0 0.40 -0.30 0.85 -0.60 0.95 -0.50 0.20 -0.50 0.30 0 0.30 0.35 0.05 0.60 0.75 0.60 1.85 0 1.45 -0.15 1.75 -0.85 1.60 -0.50 -0.10 -0.85 -0.50 -0.75 -0.80 0.05 -0.35 -0.10 -0.60 -0.35 -0.60 -0.70 0 -11.75 6.95 -12.35 7.75 -0.75 0.95 -1.50 0.95 -1.90 -0.05z"/>
  <path d="M572.70 149.25 c-0.30 -0.95 -0.45 -1.85 -0.30 -2 0.15 -0.15 4.15 -0.25 8.95 -0.25 l8.65 0 0 1.75 c0 1.80 -0.65 2.35 -1.20 1 -0.20 -0.60 -1.50 -0.75 -7.05 -0.75 -6.40 0 -6.75 0.05 -6.75 1 0 1.75 -1.70 1.20 -2.30 -0.75z"/>
 </g>
 <g fill="#171796">
  <path d="M289.50 265.25 c1.10 -0.60 0.60 -0.65 -4.75 -0.60 -9.05 0.15 -24.75 -1.50 -25.15 -2.60 -0.10 -0.25 -0.55 -0.35 -1.05 -0.20 -0.50 0.10 -4.05 -0.60 -7.95 -1.60 -5.75 -1.45 -7.20 -1.70 -8 -1.20 -0.55 0.35 -1.50 0.45 -2.35 0.25 -1.45 -0.35 -1.20 -1.05 0.45 -1.40 0.60 -0.10 -0.80 -0.85 -3.50 -1.85 -2.45 -0.90 -6.25 -2.60 -8.45 -3.70 -3.20 -1.60 -4.65 -2.05 -7.35 -2.20 -4.75 -0.25 -10.50 -1.85 -14.15 -3.90 -3.65 -2 -7.60 -6.15 -9.20 -9.55 -2.35 -4.95 -2.55 -7.30 -2.55 -33.50 0 -13.50 -0.15 -25.30 -0.30 -26.15 -0.50 -2.45 -2.30 -3.10 -7.70 -2.95 l-4.50 0.15 0 31.45 0 31.50 4.35 0.05 4.40 0.05 0.15 4.60 0.15 4.60 -24.15 -0.10 -24.15 -0.15 0 -4.50 0 -4.50 4.40 0.05 4.35 0.05 0 -61.65 0 -61.70 -1.85 -0.05 c-1.05 0 -3.10 -0.05 -4.50 -0.05 l-2.65 0 0 -4.70 0 -4.75 31.40 0.15 c28 0.15 31.65 0.30 34.35 1.05 11.80 3.40 18.75 10.15 21.80 21.10 0.90 3.20 1.10 5.20 1.10 10 -0.05 9.15 -2 15.30 -6.65 21.20 -1.85 2.30 -7 6.60 -8.60 7.20 -0.40 0.10 0.25 1.15 1.70 2.70 2.85 3.10 4.65 6.60 5.90 11.40 0.85 3.35 0.95 5.95 1 27.60 0 13.15 0.20 24.70 0.45 25.65 1.25 5.45 4.15 7.15 14.80 8.75 2.65 0.40 22.45 0.40 27.40 0 2.50 -0.20 4.85 -0.75 6.50 -1.55 1.45 -0.65 3.05 -1.20 3.60 -1.20 0.85 0 0.75 0.15 -0.50 1.05 l-1.50 1 2.75 -0.30 c1.50 -0.20 3.30 -0.40 4 -0.50 7.60 -1.10 10.10 -1.50 15.50 -2.60 11.35 -2.20 13.60 -3.05 33 -12.65 19.60 -9.70 23.75 -11.10 31.90 -10.70 2.40 0.10 4.80 0.25 5.35 0.30 0.70 0.10 1.05 -0.20 1.15 -0.95 0.10 -0.65 -0.10 -1.15 -0.40 -1.15 -0.35 0 -0.40 -0.30 -0.05 -0.90 0.50 -0.90 0.65 -20.75 0.20 -21.95 -0.15 -0.35 -0.50 -0.50 -0.85 -0.30 -0.30 0.20 -0.20 -0.05 0.20 -0.55 0.40 -0.55 0.75 -1.60 0.80 -2.40 0.10 -1.25 -0.05 -1.45 -0.90 -1.20 -1 0.25 -1 0.20 -0.10 -0.65 0.90 -0.80 4.05 -2.55 4.60 -2.55 0.15 0 -0.15 0.35 -0.70 0.80 -0.90 0.70 -0.65 0.75 2.90 0.50 3.40 -0.20 3.90 -0.10 4.15 0.65 0.15 0.50 0.25 5.60 0.20 11.35 -0.05 13.50 -0.10 12.85 0.80 12.50 0.40 -0.15 0.75 -0.10 0.75 0.15 0 0.25 -0.35 0.70 -0.75 1.05 -0.95 0.80 -0.95 3.95 -0.05 9.10 0.75 4.10 1.90 6.45 2.60 5.35 0.25 -0.45 0.65 -0.05 1.25 1.30 0.80 1.80 0.80 2.05 0.10 2.85 -0.70 0.80 -0.70 1.10 0.25 3.40 2.25 5.45 7.25 11.30 11.40 13.40 1.05 0.55 3.15 1.25 4.60 1.55 8.55 1.80 13.65 -1.25 15.30 -9.10 1.50 -7.10 -0.65 -14.55 -7.05 -24.15 -1.90 -2.85 -2.15 -3 -2.95 -2.20 -0.40 0.40 -0.95 0 -1.85 -1.20 -0.90 -1.15 -1.15 -1.80 -0.70 -1.95 0.45 -0.15 0.40 -0.60 -0.25 -1.70 -0.50 -0.85 -0.70 -1.65 -0.50 -1.85 0.20 -0.20 0.05 -0.30 -0.35 -0.20 -0.80 0.20 -5.10 -5.15 -4.65 -5.80 0.15 -0.25 0 -0.30 -0.30 -0.10 -0.35 0.20 -0.60 0.05 -0.60 -0.30 0 -0.40 -2.85 -3.95 -6.35 -7.95 -3.55 -3.95 -7.15 -8.20 -8.10 -9.35 -1.30 -1.65 -1.90 -2.05 -2.75 -1.85 -0.90 0.25 -0.90 0.20 -0.20 -0.25 0.75 -0.45 0.45 -1.05 -2.35 -5.15 -8.70 -12.70 -12.10 -23.95 -10.50 -34.35 1.35 -9.05 3.90 -14.25 9.80 -20.10 3 -2.95 4.75 -4.25 8 -5.80 6.35 -3 10.45 -3.85 18.45 -3.80 7.85 0.05 12.30 1.15 20.45 5 2.60 1.20 4.85 2.10 5 1.90 0.15 -0.15 0.30 -1.10 0.30 -2.10 l0 -1.85 5 0 5 0 0 16.35 c0 15 0.05 16.35 0.80 16.15 0.70 -0.25 0.90 0.15 1.05 2.05 0.15 1.95 0 2.45 -0.95 3.20 -1.05 0.80 -1.15 1.30 -1.15 5.40 0 5.40 0.25 6.40 1.45 5.50 0.65 -0.50 0.65 -0.45 -0.05 0.40 -1.10 1.25 -1.30 6.70 -0.25 6.70 0.45 0 0.45 0.10 0 0.40 -0.30 0.20 -0.65 1.25 -0.75 2.35 l-0.15 2 -3.25 0.15 c-2.10 0.10 -3.95 -0.15 -5.10 -0.60 -1.65 -0.70 -1.80 -0.95 -1.60 -2.30 0.15 -0.85 0.05 -1.50 -0.25 -1.50 -0.35 0 -0.55 -1.60 -0.55 -4.30 0 -3.75 -0.10 -4.25 -0.75 -3.70 -1.20 1 -0.95 -4.45 0.30 -5.80 0.90 -1 0.95 -1.20 0.20 -5.25 -2.50 -13.55 -8.90 -24.60 -16.40 -28.40 -2.60 -1.35 -4.05 -1.75 -6.50 -1.85 -7.40 -0.30 -11 3.35 -10.60 10.80 0.45 9.15 4.95 18.40 14.70 30.45 2.10 2.55 4.10 5 4.45 5.45 0.55 0.70 0.75 0.75 1.70 0.15 0.85 -0.55 1.15 -0.55 1.30 -0.05 0.10 0.30 1.20 1.65 2.40 2.90 1.20 1.30 2.20 2.60 2.20 2.85 0 0.30 1 1.40 2.25 2.45 1.95 1.75 2.10 2.05 1.35 2.60 -0.70 0.50 -0.40 1.05 2.70 4.75 8.40 9.95 14.25 18.95 16.90 26.10 1.80 4.85 2.95 11.90 2.60 15.90 -1.30 14.40 -11 26.60 -25.15 31.50 -7.05 2.45 -18.25 2.85 -25.90 0.90 -2.20 -0.55 -7.45 -2.45 -11.85 -4.25 -3.60 -1.50 -4.60 -1.55 -4.15 -0.20 0.15 0.55 0.15 1.45 0 2.05 -0.30 0.95 -0.65 1 -5.15 0.85 l-4.80 -0.15 -0.10 -6.75 c-0.10 -3.70 -0.15 -6.95 -0.15 -7.20 -0.05 -0.25 -0.35 -0.15 -0.75 0.15 -0.60 0.50 -0.75 0.15 -0.90 -2 -0.10 -1.70 0.05 -2.65 0.50 -2.90 0.45 -0.25 0.60 -1.20 0.50 -2.85 l-0.15 -2.45 -2.80 0.05 c-3.70 0.05 -5.90 1.30 -15.25 8.55 -17.35 13.50 -31.20 20.70 -45.80 23.85 -0.80 0.20 -1.40 0.65 -1.40 1.05 0 0.40 -0.65 1.05 -1.40 1.45 -1.60 0.80 -8 1.80 -11.50 1.80 -2.25 -0.05 -2.30 -0.05 -1.10 -0.75z m6 -5.75 c17.20 -2.25 35.10 -10.30 50.70 -22.90 11.75 -9.50 15.15 -11.35 20.80 -11.35 2.35 0 4.30 0.30 5.25 0.75 l1.50 0.75 0.15 11.15 c0.10 9.15 0.25 11.10 0.85 11.10 0.35 0 0.85 -0.50 1 -1.10 0.50 -1.65 2.25 -3.40 3.35 -3.40 0.55 0 4.10 1.25 7.90 2.75 8.55 3.40 12.35 4.30 18.75 4.50 21.55 0.65 37.45 -13.70 36.50 -33 -0.55 -11.90 -7.15 -23.15 -25.30 -43.25 -19.45 -21.55 -26.10 -32.85 -27.10 -45.95 -0.45 -5.70 1.80 -11.45 5.30 -13.60 4.40 -2.70 12 -2.80 17.60 -0.25 5.15 2.35 11.35 9.50 14.70 16.90 3.75 8.30 5.10 14.70 5.40 26 0.20 7.10 0.40 8.90 0.95 8.90 0.60 0 0.70 -4.20 0.70 -25.70 0 -16.55 -0.20 -25.85 -0.50 -26.05 -0.25 -0.15 -0.75 0.35 -1.10 1.10 -0.90 2.10 -2.45 3.65 -3.65 3.65 -0.60 0 -3.35 -1.10 -6.05 -2.45 -9.15 -4.55 -14.80 -5.85 -22.90 -5.40 -8.30 0.50 -14.40 2.70 -19.60 7.15 -4.40 3.70 -8.05 10.15 -9.25 16.30 -0.65 3.45 -0.65 11 0 14 2.30 10.05 8.25 19.70 21.55 34.90 15.40 17.55 22.30 27.10 25.70 35.65 1.90 4.85 2.45 8 2.20 13.20 -0.20 3.90 -0.50 5.15 -1.85 7.85 -3.15 6.40 -8.05 9.15 -15.35 8.55 -9.60 -0.75 -16.90 -6.10 -21.85 -16.05 -4.80 -9.55 -6.45 -19.30 -6.55 -38.65 -0.05 -6.10 -0.20 -8.25 -0.65 -8.40 -0.50 -0.20 -0.65 3.35 -0.65 16.55 0 9.25 -0.10 16.80 -0.25 16.80 -0.10 0 -2 -0.60 -4.10 -1.30 -3.45 -1.15 -4.50 -1.30 -8.65 -1.10 -6.25 0.35 -9.85 1.60 -23.20 8.25 -14.40 7.20 -22.40 10.85 -27.15 12.30 -6.50 2.05 -18.35 4.35 -28.90 5.60 -1.35 0.15 -3.05 0.40 -3.75 0.50 -0.70 0.15 -3.15 0.35 -5.50 0.55 -2.35 0.15 -5.25 0.40 -6.50 0.50 -4.05 0.30 -20.20 0.30 -23.25 -0.05 -12.35 -1.25 -17.80 -3.75 -20.30 -9.35 l-1.20 -2.65 -0.15 -25 c-0.05 -14.80 -0.35 -26.05 -0.65 -27.65 -0.80 -4.10 -3.70 -9.40 -6.10 -11.15 -1.10 -0.80 -2.35 -1.45 -2.80 -1.45 -1.40 0 -1.90 -0.70 -2.25 -2.80 -0.35 -2 -0.35 -2.05 1.60 -2.60 2.80 -0.85 7.50 -4.05 10.20 -6.95 4.30 -4.65 6.30 -10.15 6.60 -18.40 0.40 -9.05 -2.25 -16.40 -7.75 -21.45 -4.85 -4.50 -9.80 -6.50 -18.10 -7.25 -6 -0.50 -53.10 -0.45 -53.65 0.10 -0.20 0.20 1.70 0.35 4.20 0.35 l4.60 0 0 65.95 0 65.90 -4.60 -0.25 c-3.35 -0.20 -4.45 -0.10 -4.20 0.35 0.40 0.65 39.80 0.85 39.80 0.20 0 -0.25 -2.20 -0.40 -4.85 -0.40 l-4.90 0 -0.15 -34.75 c-0.05 -19.10 0 -35.25 0.15 -35.90 0.30 -1.15 0.40 -1.15 7.15 -1.05 7.35 0.05 9.85 0.60 11.90 2.50 2.55 2.40 2.70 4.15 2.70 30.70 0 14.60 0.15 25.55 0.45 27.15 1.85 9.45 9.20 14.90 21.55 15.90 2.85 0.25 4.70 0.75 7.75 2.20 13.95 6.55 28.05 10.45 43.25 11.90 5.10 0.50 17.30 0.25 22.50 -0.40z"/>
  <path d="M178.25 167.10 c-0.35 -0.95 -0.30 -55.85 0.05 -56.80 0.25 -0.70 1.55 -0.80 8.90 -0.80 9.70 0 12.75 0.60 14.90 2.85 3.60 3.90 4 6.90 3.80 28.75 l-0.15 17.70 -1.50 3 c-1.30 2.50 -1.90 3.15 -4.25 4.30 -2.70 1.40 -2.95 1.40 -12.10 1.55 -7.45 0.10 -9.45 -0.05 -9.65 -0.55z m19.70 -4.75 c0.70 -0.35 1.65 -1.35 2.20 -2.20 0.85 -1.55 0.95 -2.90 0.85 -21.50 -0.05 -17.25 -0.15 -20.05 -0.85 -21.55 -1.25 -2.60 -3.20 -3.20 -10.75 -3.30 l-6.40 -0.05 -0.10 24.65 c-0.10 13.60 -0.10 24.70 -0.05 24.75 0.40 0.40 14.10 -0.30 15.10 -0.80z"/>
  <path d="M554.80 226 c-0.05 -0.15 -0.05 -1.70 -0.05 -3.50 l0.05 -3.25 2.80 -0.05 c1.50 -0.05 3 -0.20 3.30 -0.40 0.85 -0.50 1.40 -2.50 8.35 -30.60 l6.55 -26.55 -1.80 -7.05 -1.85 -7 2 -0.30 c1.10 -0.20 2.10 -0.20 2.25 -0.05 0.15 0.15 -0.25 0.25 -0.85 0.25 -1.35 0 -1.40 -0.35 0.90 7.90 l1.55 5.65 -7.20 28.95 c-4 15.90 -7.55 29.40 -7.90 29.95 -0.70 1.15 -2.85 2.05 -4.95 2.05 -1.20 0 -1.45 0.20 -1.45 1.25 l0 1.25 9 0 9 0 0 -1.20 c0 -1.05 -0.25 -1.20 -2.55 -1.40 -1.35 -0.15 -2.75 -0.50 -3.10 -0.85 -0.45 -0.45 0 -2.90 1.90 -10.45 l2.50 -9.85 7.35 -0.15 7.30 -0.15 0.75 2.65 c1.20 4.30 4.30 16.55 4.45 17.65 0.15 0.85 -0.20 1 -1.95 1.15 -1.90 0.15 -2.15 0.30 -2.15 1.40 l0 1.20 11.75 0 11.75 0 0 -1.25 c0 -1.15 -0.15 -1.25 -2.40 -1.25 l-2.45 0 -1.05 -3.85 c-0.55 -2.15 -2.30 -8.85 -3.85 -14.90 -1.55 -6.05 -3.45 -13.35 -4.25 -16.25 -0.75 -2.90 -3 -11.55 -5 -19.25 -5.30 -20.75 -4.75 -19.15 -6.65 -19 -0.90 0.05 -1.20 0 -0.70 -0.10 0.60 -0.15 0.80 -0.50 0.65 -0.95 -0.55 -1.35 3.30 -0.65 4 0.70 0.30 0.65 1.05 1.50 1.65 1.90 0.55 0.40 1.05 1 1.05 1.30 0 0.30 -0.50 0.15 -1.05 -0.40 -1.10 -0.95 -1.10 -0.95 -0.85 0.30 0.15 0.70 1.85 7.35 3.80 14.75 1.95 7.45 5.15 19.70 7.15 27.25 1.95 7.55 4.30 16.45 5.15 19.75 l1.55 6 2.90 -0.15 2.90 -0.20 -0.15 3.55 -0.15 3.60 -14 0 -14 0 -0.15 -3.60 -0.15 -3.55 2.05 0.20 c1.10 0.10 2 0 2 -0.25 0 -0.75 -3.50 -14.60 -4 -15.75 -0.50 -1.10 -0.70 -1.15 -5.85 -1 l-5.35 0.15 -2.10 8.40 c-1.15 4.60 -1.95 8.40 -1.75 8.40 0.15 0.05 1.50 0.05 2.95 -0.05 l2.65 -0.10 -0.15 3.60 -0.15 3.55 -10.90 0.10 c-6.05 0.05 -11 0 -11.05 -0.15z"/>
  <path d="M452.20 225.65 c-0.30 -0.25 -0.50 -1.05 -0.45 -1.90 0.05 -0.80 0.15 -2.35 0.15 -3.35 0.10 -1.85 0.10 -1.85 2.25 -1.75 l2.10 0.10 0.15 -30.95 c0.10 -30.75 0.10 -30.90 -0.90 -30.65 -0.55 0.15 -1 0.05 -1 -0.20 0 -0.25 -0.50 -0.45 -1.10 -0.45 -1.05 -0.05 -1.05 -0.10 -0.25 -0.55 1.15 -0.70 1.10 -1.40 -0.15 -1.10 -0.75 0.20 -1 0 -1 -0.75 0 -0.75 -0.25 -0.95 -0.95 -0.75 -1.15 0.30 -1.90 -0.75 -0.85 -1.15 0.55 -0.20 0.80 -0.95 0.80 -2.15 0 -1 0.25 -2.10 0.60 -2.45 0.70 -0.70 5.40 -0.80 5.40 -0.10 0 0.95 1.40 0.50 1.65 -0.50 0.20 -0.80 0.65 -1 2.20 -1 1.70 0.05 1.80 0.10 1.05 0.70 -0.50 0.35 -0.90 0.75 -0.90 0.85 0 0.15 3.90 0.20 8.65 0.15 6.60 -0.05 9.10 -0.25 10.80 -0.90 2.30 -0.85 4.40 -1 5.80 -0.45 0.70 0.25 0.60 0.40 -0.55 0.95 -1.25 0.55 0.15 0.65 9.30 0.55 l10.75 -0.10 0.05 3.35 c0 3.65 -0.25 3.95 -3.25 3.60 l-1.55 -0.20 0.10 32.10 0.15 32.10 2.25 0.05 2.20 0 0.20 3.30 c0.15 2.95 0.05 3.35 -0.80 3.55 -1.10 0.30 -9.70 0 -10.05 -0.35 -0.55 -0.60 0.75 -0.95 4.40 -1.15 3.70 -0.20 3.95 -0.30 4.20 -1.40 0.20 -1.15 0.05 -1.20 -2.20 -1.20 l-2.45 0 0 -34.75 0 -34.75 2.25 0 c2.05 0 2.25 -0.10 2.25 -1.25 l0 -1.25 -11.25 0 -11.25 0 0 1.20 c0 1.05 0.25 1.25 1.90 1.40 l1.85 0.15 0 14 0 14 -6.10 0.15 -6.15 0.15 0 -14.30 0 -14.35 1.65 0.20 c1.40 0.15 1.60 0 1.75 -1.20 l0.15 -1.35 -11.25 -0.15 -11.30 -0.15 0 1.40 c0 1.30 0.10 1.35 2.50 1.35 l2.50 0 0 34.75 0 34.75 -2.50 0 c-2.35 0 -2.50 0.10 -2.50 1.25 0 1.20 0.10 1.25 3.75 1.25 3.05 0 3.80 0.15 4.20 0.90 0.40 0.80 0.10 0.85 -4.10 1 -2.55 0.05 -4.85 -0.05 -5.15 -0.25z m30.35 -47.40 c0.25 0 0.45 -20.85 0.20 -22.15 -0.25 -1.40 -0.45 -1.60 -1.55 -1.40 -1.65 0.30 -2.80 -0.15 -2.50 -1 0.15 -0.40 0.05 -0.70 -0.20 -0.70 -0.30 0 -0.50 0.30 -0.50 0.70 0 0.45 -0.60 0.80 -1.60 0.90 l-1.65 0.15 0 11.50 c0 6.35 0.15 11.60 0.35 11.75 0.20 0.15 1.95 0.30 3.90 0.25 1.90 0 3.50 0 3.55 0z"/>
  <path d="M471.65 225.10 c-0.85 -0.90 -0.80 -1.10 0.25 -1 0.45 0.05 1.60 0 2.50 0 1.50 -0.10 1.65 -0.25 1.50 -1.45 -0.15 -1.25 -0.35 -1.40 -1.75 -1.25 l-1.65 0.20 0 -19.35 0 -19.30 6.15 0.15 6.10 0.15 0 19 0 19 -1.75 0 c-1.50 0.05 -1.75 0.20 -1.90 1.40 -0.15 1.15 0 1.35 1.25 1.45 0.75 0 1.70 0.10 2.05 0.10 0.40 0.05 0.85 0.40 1.10 0.80 0.35 0.65 -0.50 0.75 -6.40 0.75 -4.95 0 -6.95 -0.20 -7.45 -0.65z m8.95 -6.30 c1.45 0.05 1.85 -0.15 2.10 -1 0.15 -0.55 0.20 -7.90 0.15 -16.30 l-0.10 -15.25 -4 0 -4 0 -0.05 15.50 c0 8.55 0.05 15.85 0.15 16.30 0.15 0.50 0.75 0.80 1.55 0.75 1.30 -0.05 1.35 0.05 1.55 3.20 l0.25 3.25 0.25 -3.25 0.30 -3.25 1.85 0.05z"/>
  <path d="M508 222.55 l0 -3.50 2.40 -0.15 2.35 -0.15 0 -31.75 0 -31.75 -2.35 -0.15 -2.40 -0.15 0 -3.50 0 -3.45 21.75 0 21.75 0 0 17 0 17 -3.75 0 -3.80 0 0.35 -5.60 c0.35 -6.55 -0.35 -12.50 -1.80 -15.40 -1.60 -3.15 -4.45 -4.85 -9.60 -5.75 l-1.90 -0.30 0 12.80 c0 8.75 0.15 12.75 0.55 12.75 0.30 0 1.15 -0.65 1.95 -1.40 1.70 -1.75 2.55 -5.35 2.65 -11.75 l0.10 -4.60 3.15 -0.05 c1.70 -0.05 3.10 0.05 3.10 0.25 0.05 0.15 0.05 10.50 0.05 23 0.05 13.60 0.20 22.50 0.50 22.20 0.95 -0.95 1.60 -6.75 1.60 -14.25 l0 -7.80 3.55 0.05 3.55 0.10 0.15 19.90 0.10 19.85 -22 0 -22 0 0 -3.45z m42.10 -16.05 l0.15 -18 -1.55 0 -1.55 0 0.05 4.65 c0.05 6.70 -0.25 10.65 -1.20 14.35 -1.15 4.40 -2.15 6.25 -5.20 9.25 -2.65 2.65 -5.20 3.85 -9.65 4.55 l-2.15 0.35 0 -18.10 c0 -10.85 0.20 -18.05 0.45 -18.05 2.65 0 6.20 3.25 7.55 6.90 1.05 2.75 2.25 11.80 1.90 13.85 -0.20 0.85 0 1.25 0.70 1.40 0.85 0.25 0.90 -0.60 0.90 -21.75 0 -19.45 -0.10 -21.95 -0.75 -21.80 -0.60 0.10 -0.85 1.05 -1 4.15 -0.25 5.05 -1 8.50 -2.35 10.65 -1.10 1.75 -4.25 3.55 -6.25 3.60 l-1.15 0 0 -15 0 -15 2.15 0 c1.15 0 3.40 0.35 5 0.75 8.10 2.10 10.90 7.30 10.80 20 l-0.05 6.50 1.30 0.15 1.30 0.15 0 -15.25 0 -15.30 -19.75 0 -19.75 0 0 1.50 c0 1.45 0.05 1.50 2.50 1.50 l2.50 0 0 34.50 0 34.50 -2.50 0 c-2.45 0 -2.50 0.05 -2.50 1.50 l0 1.50 20 0 20 0 0.10 -18z m-14.05 10.65 c1.80 -0.95 3.35 -2.25 4.55 -3.90 1.05 -1.35 1.90 -2.65 1.90 -2.85 0 -0.25 -1.45 -0.40 -3.20 -0.40 l-3.15 0 -0.10 -5.85 c-0.10 -6 -0.60 -9.25 -1.95 -11.90 -0.85 -1.75 -2.10 -3.25 -2.70 -3.25 -0.20 0 -0.40 6.65 -0.40 14.75 l0 14.75 1.15 0 c0.65 0 2.40 -0.60 3.90 -1.35z"/>
  <path d="M233.50 215.15 l0 -3.55 2.40 0.05 2.35 0.05 0 -32 0 -31.95 -2.35 0.15 -2.40 0.15 0 -3.75 0 -3.80 14.15 0.15 14.10 0.10 0 3.45 0 3.45 -2.50 0.05 c-2.15 0.05 -2.50 0.20 -2.45 1.05 0.05 0.55 0.10 14.95 0.10 32 l0.10 31.05 2.40 -0.05 2.35 0 0 3.40 0 3.40 -14.15 0.10 -14.10 0.10 0 -3.60z m26 0.35 c0 -1.50 -0.05 -1.50 -2.75 -1.50 l-2.75 0 0.10 -34.35 0.15 -34.40 2.40 -0.25 c1.30 -0.15 2.35 -0.40 2.35 -0.60 0 -0.25 0 -0.85 0 -1.40 0 -0.95 -0.35 -1 -12 -1 l-12 0 0 1.50 c0 1.50 0.05 1.50 2.75 1.50 l2.75 0 0 34.50 0 34.50 -2.75 0 c-2.70 0 -2.75 0 -2.75 1.50 l0 1.50 12.25 0 12.25 0 0 -1.50z"/>
  <path d="M273.30 218.50 c-0.10 -0.15 -0.10 -1.70 -0.10 -3.50 l0.05 -3.25 2.25 0 2.25 0 0.25 -22.25 c0.15 -12.25 0.15 -26.65 0 -32 l-0.25 -9.75 -2.10 0.10 -2.15 0.05 -0.05 -1.95 c0 -1.05 -0.05 -2.70 -0.10 -3.55 l-0.05 -1.65 13.25 -0.05 c7.25 -0.05 14.80 0.15 16.70 0.40 9 1.15 15.65 7.25 18.30 16.65 1.05 3.70 0.90 14.60 -0.25 18.75 -1.30 4.85 -3.05 8.15 -5.90 11.25 -4.30 4.70 -8.95 6.75 -15.55 6.75 l-3.35 0 0.10 8.65 0.15 8.60 2.25 0 2.25 0 0 3.45 0 3.40 -13.90 0.10 c-7.70 0 -14 -0.05 -14.05 -0.20z m24.80 -1.75 c0.15 -0.15 0.15 -0.85 0 -1.50 -0.20 -1.10 -0.45 -1.25 -2.40 -1.25 l-2.20 0 0 -11 0 -11 4.15 0 c11.40 0 18.25 -5.65 21.10 -17.35 1.25 -5.10 0.85 -15.70 -0.70 -19.65 -2.25 -5.80 -5.85 -9.55 -10.95 -11.60 -2.70 -1.05 -3.70 -1.10 -17.70 -1.30 l-14.90 -0.20 0 1.55 c0 1.50 0.05 1.55 2.50 1.55 l2.50 0 0 34.50 0 34.50 -2.50 0 c-2.45 0 -2.50 0.05 -2.50 1.50 l0 1.50 11.65 0 c6.45 0 11.80 -0.10 11.95 -0.25z"/>
  <path d="M293.50 167 l0 -22 3.45 0 c2.70 0 3.70 0.20 4.75 1.05 l1.35 1.05 -0.15 20 -0.15 20 -1.20 0.95 c-0.90 0.75 -1.95 0.95 -4.60 0.95 l-3.45 0 0 -22z m7.55 19.40 c0.50 -0.75 0.35 -37.65 -0.15 -38.15 -0.15 -0.20 -1.25 -0.45 -2.35 -0.60 l-2.05 -0.30 0 20.05 0 20.05 2.10 -0.20 c1.10 -0.10 2.25 -0.50 2.45 -0.85z"/>
  <path d="M394 197.55 c0 -0.60 1.95 -1.75 2.30 -1.40 0.15 0.10 -0.35 0.60 -1.05 1.05 -0.70 0.45 -1.25 0.60 -1.25 0.35z"/>
  <path d="M574.35 197.65 c-0.10 -0.25 1.10 -5.55 2.70 -11.90 1.60 -6.30 2.95 -12 2.95 -12.60 0 -0.65 0.25 -1.15 0.50 -1.15 0.30 0 0.50 0.10 0.50 0.20 0 0.10 1.35 5.65 3 12.25 1.65 6.65 3 12.40 3 12.80 0 0.65 -1 0.75 -6.20 0.75 -3.45 0 -6.35 -0.15 -6.45 -0.35z m9.95 -4.05 c-0.15 -0.50 -0.70 -2.75 -1.30 -5.10 -0.60 -2.35 -1.30 -5.15 -1.60 -6.25 l-0.55 -2 -1.65 6.50 c-0.90 3.60 -1.70 6.85 -1.70 7.25 0 0.60 0.65 0.70 3.50 0.60 3.05 -0.15 3.50 -0.30 3.30 -1z"/>
  <path d="M387.30 188.10 c-2.75 -3.15 -4.75 -5.65 -4.45 -5.55 0.65 0.25 9.85 10.95 9.60 11.15 -0.10 0.10 -2.45 -2.45 -5.15 -5.60z"/>
  <path d="M590.25 146.25 l-1.50 -0.70 1.30 -0.05 c0.75 0 1.60 0.35 1.95 0.75 0.75 0.90 0.25 0.90 -1.75 0z"/>
 </g>
 <g fill="#332b24">
  <path d="M112.50 362.95 c-13.75 -1.30 -27.80 -4.85 -36.75 -9.35 -15.15 -7.55 -24.05 -18.85 -27 -34.20 -0.35 -2 -0.55 -3.80 -0.45 -4 0.15 -0.25 0.95 -0.75 1.75 -1.15 1.45 -0.75 1.55 -0.75 4.45 1.50 7.50 5.80 16.60 10.45 27.25 14 8.10 2.65 10.25 3.10 10.25 2 0 -0.40 0.35 -0.75 0.80 -0.75 0.70 0 0.80 0.45 0.50 3.10 -0.40 3.35 -0.65 3.95 -1.20 3.10 -0.20 -0.30 -3.25 -1.30 -6.85 -2.20 -9.90 -2.50 -19.35 -6.65 -27.70 -12.20 -2.35 -1.55 -4.30 -2.70 -4.40 -2.65 -0.35 0.35 1.55 5.80 3.25 9.35 2.20 4.55 5.15 8.55 8.90 12 2.60 2.30 8.25 6.50 8.90 6.50 0.15 0 1.10 0.50 2.15 1.15 3.55 2.05 9.35 4.20 17.90 6.55 6.20 1.70 17.45 3.10 28.25 3.50 5.85 0.25 7.05 0.10 18.50 -2 27.90 -5.15 53.30 -12.85 82 -24.80 4.30 -1.75 27.25 -13.05 31.75 -15.55 1.65 -0.95 4.15 -2.35 5.50 -3.10 1.40 -0.75 2.85 -1.65 3.25 -1.95 0.40 -0.30 1.75 -1.10 3 -1.80 1.25 -0.65 3.55 -2.05 5.15 -3.10 1.60 -1.05 3.05 -1.90 3.15 -1.90 0.45 0 19.85 -13.05 24.10 -16.20 8.55 -6.30 14.05 -10.50 20.30 -15.45 3.55 -2.80 8.35 -6.60 10.75 -8.45 4.65 -3.65 6.45 -5.05 16.05 -12.65 3.45 -2.70 7.50 -5.90 9 -7.10 1.50 -1.15 5.30 -4.20 8.40 -6.65 3.15 -2.50 5.85 -4.40 6 -4.30 0.20 0.10 0.35 1.15 0.35 2.35 l0 2.15 -10.50 8.25 c-53.60 42.20 -56.55 44.45 -71.60 54.45 -32.90 21.95 -63 36.50 -99.15 48 -16.05 5.10 -31.20 8.90 -47.30 11.80 -13.35 2.45 -18.30 2.75 -28.70 1.75z"/>
  <path d="M106.55 339.95 c-0.05 -0.45 -0.40 -0.95 -0.80 -1.15 -0.55 -0.20 -0.75 -1 -0.75 -2.80 l0 -2.50 2 0 c1.95 0 2 0.05 2 1.75 0 0.95 0.25 1.75 0.50 1.75 0.30 0 0.50 0.80 0.50 1.75 0 1.20 -0.25 1.75 -0.75 1.75 -0.40 0 -0.75 -0.30 -0.75 -0.70 0 -1.30 -1 -1.40 -1.45 -0.20 -0.35 0.75 -0.50 0.90 -0.50 0.35z"/>
  <path d="M132.90 337 c-0.30 -1.85 1.25 -5.50 2.35 -5.50 0.55 0 0.75 -0.55 0.75 -2 0 -2.60 0.90 -4.50 2.15 -4.50 0.75 0 0.90 0.25 0.70 1.05 -0.25 0.95 -0.15 1 2.55 0.70 20.60 -2.30 45.65 -10.80 83.80 -28.35 5.70 -2.65 38.65 -19.15 44.05 -22.05 4.55 -2.45 11.25 -6.10 13.50 -7.35 0.85 -0.45 2.95 -1.65 4.75 -2.65 2.75 -1.50 4.15 -1.90 9.20 -2.60 3.30 -0.45 6.15 -0.90 6.40 -1.05 0.20 -0.15 0.25 0.05 0.10 0.40 -0.50 1.30 -31.65 20.20 -48.25 29.30 -15.95 8.75 -35.40 18.10 -45.45 21.85 -2.05 0.75 -7.35 2.90 -11.75 4.80 -20.80 8.80 -41.90 15.40 -55.50 17.45 -1.90 0.25 -4.45 0.65 -5.65 0.80 -1.15 0.20 -2.25 0.55 -2.40 0.75 -0.55 0.90 -1.10 0.40 -1.30 -1.05z m9.15 -4.50 c14.70 -2.65 38.90 -10.30 53.45 -16.90 6.60 -3 7.85 -3.50 11.80 -5 10.70 -4.10 24.45 -10.55 40.20 -19 9.40 -5 24.85 -13.75 27.25 -15.40 1.75 -1.25 0.20 -0.75 -2.45 0.75 -35.10 20.10 -91.40 44.80 -112.05 49.25 -8.50 1.80 -13.45 2.65 -17.50 3.05 -4.90 0.45 -5.60 0.60 -5.90 1.60 -0.10 0.50 -0.40 1.30 -0.60 1.80 -0.20 0.45 -0.25 0.85 -0.15 0.85 0.15 0 2.80 -0.45 5.95 -1z"/>
  <path d="M121.80 336.65 c-0.45 -1.70 -0.05 -3.40 0.85 -3.55 0.50 -0.10 0.85 0.15 0.85 0.60 0 1.05 0.90 1.50 1.75 0.80 0.65 -0.55 0.75 -0.35 0.75 1.20 0 1.75 -0.05 1.80 -1.95 1.80 -1.45 0 -2.05 -0.25 -2.25 -0.85z"/>
  <path d="M126.50 332.20 c0.70 -1.75 0.75 -1.70 -1.55 -1.70 -1.60 0 -2 0.15 -1.75 0.75 0.45 1.20 -1.05 0.90 -1.90 -0.35 -0.45 -0.60 -0.80 -1.85 -0.80 -2.75 0 -1.65 0.05 -1.65 1.15 -0.90 1.25 0.80 5.70 0.90 6.75 0.10 0.45 -0.35 0.60 0.05 0.60 1.70 0 3.40 -0.45 4.45 -1.80 4.45 -1.05 0 -1.15 -0.15 -0.70 -1.30z"/>
  <path d="M92 325.75 c0 -0.45 -0.40 -0.90 -0.85 -1.10 -3.25 -1.10 -9.65 -4.45 -13.45 -7 -13.35 -9.05 -21.05 -20.45 -24.75 -36.65 -1.40 -6.20 -1.40 -18.50 -0.05 -25 l0.90 -4.25 2 -0.15 2 -0.15 1.40 4.30 c3.25 10.05 8 18.35 14.25 24.90 11.15 11.65 22.45 15.85 42.95 15.85 10.80 0 17.35 -0.75 32.85 -3.80 25.65 -5.10 47.95 -13.30 80.75 -29.70 6 -3 10.60 -5 11.50 -5 3.70 0 2 1 -21.75 13 -16.90 8.50 -20.60 10.25 -27.50 13 -2.20 0.85 -4.20 1.75 -4.50 1.95 -0.25 0.20 -1.50 0.70 -2.75 1.05 -1.25 0.35 -2.50 0.85 -2.80 1.10 -0.90 0.65 -7.75 2.90 -8.90 2.90 -0.60 0 -1.70 0.35 -2.50 0.75 -0.75 0.40 -2 0.75 -2.75 0.75 -0.75 0 -1.55 0.20 -1.85 0.50 -0.65 0.65 -12.55 3.50 -14.70 3.50 -1 0 -2.05 0.25 -2.35 0.55 -0.30 0.30 -2.65 0.70 -5.20 0.95 -2.60 0.25 -6.50 0.70 -8.70 1.05 -6.45 1.05 -21.75 0.80 -29.25 -0.50 -14.60 -2.50 -24.20 -7.25 -33.90 -16.75 -4.55 -4.45 -8.05 -9.45 -11.60 -16.55 -2.55 -4.95 -2.90 -5.50 -4 -5.35 -0.70 0.10 -1.35 0.25 -1.45 0.35 -0.50 0.55 -1.10 9.15 -0.85 13.25 1.10 19.60 12.75 35.95 32.65 45.95 4.55 2.25 5.15 2.40 5.15 1.30 0 -1.75 0.90 -0.55 1.20 1.55 0.45 3.45 0.40 4.20 -0.45 4.20 -0.40 0 -0.75 -0.35 -0.75 -0.75z"/>
  <path d="M275.50 239.20 c1.80 -1 11.35 -6.45 21.25 -12.10 9.90 -5.65 26.40 -15.30 36.70 -21.45 10.30 -6.15 18.75 -11.10 18.85 -11 0.10 0.05 -3.05 2.05 -6.95 4.40 -26.50 16 -40.05 24.10 -49.85 29.95 -6.20 3.65 -13.10 7.75 -15.40 9.10 -2.30 1.35 -5 2.60 -6 2.75 -1.75 0.20 -1.65 0.15 1.40 -1.65z"/>
  <path d="M383.05 225.75 c-0.35 -0.95 -0.50 -1.95 -0.35 -2.20 0.15 -0.25 2.10 -1.90 4.35 -3.65 2.20 -1.70 5.90 -4.60 8.15 -6.40 2.25 -1.80 5.15 -4.05 6.45 -5 1.25 -0.95 2.35 -2.10 2.45 -2.50 0.10 -0.50 0.65 -0.10 1.60 1.15 1.25 1.65 1.35 2 0.75 2.55 -1 0.95 -22.40 17.80 -22.60 17.80 -0.10 0 -0.45 -0.80 -0.80 -1.75z"/>
  <path d="M380 208.40 c0 -0.35 1.45 -1.65 3.15 -2.90 1.70 -1.20 5.20 -3.85 7.75 -5.85 2.60 -2 4.95 -3.65 5.20 -3.65 0.30 0 -0.55 0.85 -1.90 1.85 -1.35 1 -4.15 3.20 -6.20 4.90 -6.90 5.55 -8 6.35 -8 5.65z"/>
  <path d="M401.70 202.90 c-0.55 -0.65 -1.85 -2.25 -2.90 -3.65 l-1.90 -2.50 2.60 2.75 c2.35 2.50 3.85 4.50 3.35 4.50 -0.10 0 -0.60 -0.50 -1.15 -1.10z"/>
  <path d="M382.50 201.45 c1.40 -1.10 2.65 -1.95 2.80 -1.85 0.20 0.25 -4.60 3.90 -5.10 3.90 -0.15 0 0.85 -0.90 2.30 -2.05z"/>
  <path d="M387.05 198.15 c0 -0.20 1.15 -1.25 2.50 -2.30 1.65 -1.25 2.45 -2.20 2.25 -2.65 -0.15 -0.45 -0.05 -0.60 0.20 -0.45 1.05 0.65 0.40 1.70 -2.25 3.70 -1.50 1.15 -2.75 1.90 -2.70 1.70z"/>
  <path d="M357.75 195.25 c1.10 -0.90 4.30 -2.65 3.50 -1.90 -0.25 0.30 -1.40 1 -2.50 1.60 -1.10 0.65 -1.55 0.75 -1 0.30z"/>
  <path d="M354.50 193.05 c0.70 -0.55 1.50 -1.05 1.75 -1.05 0.55 0 -0.35 0.70 -2 1.55 -0.65 0.35 -0.60 0.15 0.25 -0.50z"/>
  <path d="M620.55 184.65 c-6.80 -13.85 -16.50 -25.80 -25.80 -31.90 -1.40 -0.90 -2.85 -2 -3.20 -2.45 -1.70 -2.05 7.25 2.95 12.50 7 6.90 5.30 14.70 15.40 17.75 22.90 0.90 2.25 1.20 2.55 2.55 2.70 1.55 0.15 1.60 0.10 2.70 -3.50 3.35 -11.20 4.75 -25.55 3.45 -35.70 -0.65 -5.35 -3.20 -16.10 -4 -16.90 -0.30 -0.30 -0.50 -0.85 -0.50 -1.30 0 -0.40 -1.40 -3.55 -3.10 -6.95 -2.60 -5.15 -3.75 -6.80 -6.75 -9.85 -9.50 -9.60 -22.15 -14.60 -37.25 -14.75 -3.65 -0.05 -7.65 0.05 -8.90 0.25 -1.25 0.15 -3.65 0.40 -5.35 0.55 -5.35 0.45 -16.10 3.15 -23 5.75 -11.35 4.25 -16.55 7.10 -42.65 23.35 -12.40 7.70 -24.60 15.25 -28.50 17.60 -2.65 1.65 -4.15 2.25 -5.20 2.15 l-1.40 -0.20 1.15 -1.20 c0.60 -0.65 1.30 -1.20 1.50 -1.20 0.25 0 1.45 -0.75 2.75 -1.60 1.25 -0.90 2.65 -1.85 3.10 -2.15 0.45 -0.25 3.10 -1.95 5.85 -3.75 2.80 -1.80 5.65 -3.55 6.30 -3.95 0.65 -0.40 2.95 -1.80 5.10 -3.15 2.15 -1.30 4 -2.40 4.15 -2.40 0.25 0 5.95 -3.65 10.70 -6.90 13.10 -8.85 21.15 -14.10 21.60 -14.10 0.25 0 1.10 -0.40 1.80 -0.95 3 -2.05 17.60 -7.80 24.55 -9.60 10.40 -2.70 20.35 -3.75 28.35 -2.95 8.55 0.80 11.35 1.35 17.70 3.60 4.90 1.75 10.40 4.70 14.40 7.70 2.95 2.25 8.80 8.25 10.55 10.85 2.10 3.10 5.95 10.50 6.80 13.10 1.75 5.25 3.25 10.95 4.05 15.40 0.50 2.65 1.05 4.85 1.30 4.85 0.20 0 0.40 0.60 0.40 1.30 0 1 -0.20 1.20 -0.95 0.95 -0.85 -0.25 -0.95 0.10 -1.25 3.60 -0.15 2.15 -0.25 4.45 -0.20 5.15 0.10 1.20 -0.35 6.50 -0.95 10.75 -0.45 3.50 -2.50 12.30 -4.10 17.70 -0.85 2.85 -1.55 5.25 -1.55 5.35 0 0.10 -0.85 0.20 -1.90 0.20 l-1.90 0 -2.65 -5.35z"/>
  <path d="M362.35 188.45 c0.60 -0.75 3.65 -2.65 3.65 -2.30 0 0.10 -0.95 0.85 -2.10 1.60 -1.20 0.80 -1.90 1.10 -1.55 0.70z"/>
  <path d="M385.25 185.75 c-1.55 -1.80 -2.65 -3.25 -2.45 -3.25 0.40 0 0.95 0.60 4.25 4.65 2.50 3.05 1.30 2.10 -1.80 -1.40z"/>
  <path d="M375.65 180.10 c0.40 -0.55 4.55 -3.10 5.15 -3.10 0.20 0 -0.60 0.65 -1.85 1.40 -3.55 2.25 -3.65 2.30 -3.30 1.70z"/>
  <path d="M444.60 161.25 c0.80 -0.80 10.10 -6.25 10.65 -6.25 0.35 0 0.75 0.35 0.95 0.75 0.30 0.80 -0.30 1.20 -4.15 2.75 -1.40 0.55 -3.75 1.45 -5.15 2.05 -1.45 0.55 -2.50 0.90 -2.30 0.70z"/>
  <path d="M446.10 155.50 c0.25 -0.75 5.05 -4 5.50 -3.70 0.80 0.50 0.35 1.15 -2 2.65 -2.45 1.55 -3.85 2 -3.50 1.05z"/>
  <path d="M459 147.05 c0 -1.05 2.80 -3.05 4.20 -3.05 2.10 0 0.15 2.30 -2.95 3.50 -1.05 0.40 -1.25 0.35 -1.25 -0.45z"/>
  <path d="M478.50 147.55 c1.45 -0.85 17.30 -5.50 24.75 -7.30 15.55 -3.75 26.65 -5.30 39.75 -5.50 16.10 -0.30 28.85 2 41 7.35 4.15 1.80 10.50 5.25 10.50 5.70 0 0.15 -5.25 -1.95 -7.75 -3.10 -4.05 -1.85 -15.50 -4.35 -26 -5.70 -6.30 -0.80 -24.10 -0.70 -32.75 0.25 -12.60 1.35 -33 5.20 -43.50 8.25 -2.15 0.60 -7.10 0.65 -6 0.05z"/>
  <path d="M528 110 c0.95 -0.55 2 -0.95 2.25 -0.95 0.30 0 -0.30 0.40 -1.25 0.95 -0.95 0.55 -1.95 0.95 -2.25 0.95 -0.25 0 0.30 -0.40 1.25 -0.95z"/>
  <path d="M535.30 106.55 c0.65 -0.70 9.80 -4.10 10.10 -3.80 0.15 0.10 -0.20 0.40 -0.70 0.55 -0.50 0.20 -2.75 1.10 -4.95 2.05 -4.05 1.70 -5.35 2.05 -4.45 1.20z"/>
  <path d="M548.75 101.45 c0.30 -0.45 4.25 -1.65 4.55 -1.35 0.10 0.15 -0.95 0.55 -2.30 1 -1.40 0.45 -2.40 0.60 -2.25 0.35z"/>
 </g>
 <g fill="#2b2926">
  <path d="M125.50 343.50 c0 -0.55 0.30 -1 0.65 -1 0.30 0 1.10 -0.15 1.75 -0.30 0.85 -0.25 1.10 -0.10 1.10 0.70 0 0.60 -0.45 1.10 -1.10 1.30 -1.90 0.50 -2.40 0.35 -2.40 -0.70z"/>
  <path d="M105.35 340.15 c-0.20 -0.15 -0.35 -1.60 -0.35 -3.15 0 -2.45 0.15 -2.90 1.20 -3.45 1.50 -0.85 3.50 -0.55 3.70 0.55 0.10 0.50 -0.10 2.20 -0.45 3.75 -0.40 1.90 -0.70 2.50 -0.85 1.80 -0.20 -1.40 -1.10 -1.50 -1.45 -0.15 -0.25 1 -1.15 1.30 -1.80 0.65z m2.35 -6.10 c-0.60 -0.65 -1.40 2.25 -0.85 3.15 0.20 0.30 0.50 -0.25 0.70 -1.20 0.20 -0.95 0.30 -1.85 0.15 -1.95z"/>
  <path d="M121.95 337.40 c-0.35 -3.85 -0.35 -3.90 0.60 -3.90 0.70 0 0.95 0.35 0.95 1.25 0 1.60 0.25 1.55 1.75 -0.10 l1.20 -1.40 0.05 1.65 c0 0.90 -0.30 2 -0.70 2.40 -0.90 0.85 -3.80 0.95 -3.85 0.10z"/>
  <path d="M132 337.25 c0 -0.15 0.75 -1.90 1.70 -3.90 0.95 -2 1.85 -4.15 2.05 -4.85 0.20 -0.70 0.65 -1.70 0.95 -2.25 0.35 -0.55 0.80 -1.60 1 -2.35 0.25 -1.05 0.65 -1.40 1.50 -1.40 l1.25 0 -0.85 2 c-0.45 1.10 -1.20 2 -1.60 2 -0.60 0 -0.60 0.10 -0.05 0.45 0.45 0.30 0.50 0.55 0.10 0.75 -0.30 0.20 -0.55 0.70 -0.55 1.10 0 0.40 -0.35 1.50 -0.75 2.50 -0.40 0.95 -0.70 1.85 -0.70 2.05 0.05 0.15 -0.30 0.50 -0.75 0.75 -1.10 0.60 -1.05 2.75 0.10 3.05 0.45 0.15 -0.10 0.25 -1.25 0.30 -1.20 0 -2.15 -0.05 -2.15 -0.20z"/>
  <path d="M147 335 c0 -0.25 0.35 -0.50 0.75 -0.50 0.40 0 0.75 0.25 0.75 0.50 0 0.30 -0.35 0.50 -0.75 0.50 -0.40 0 -0.75 -0.20 -0.75 -0.50z"/>
  <path d="M121.15 330.65 c-0.35 -0.75 -0.65 -2 -0.65 -2.75 0 -1.25 0.10 -1.35 1 -0.80 0.50 0.35 0.85 0.70 0.75 0.80 -0.10 0.15 0.05 0.70 0.35 1.30 0.85 1.55 0.85 2.80 -0.05 2.80 -0.45 0 -1.10 -0.60 -1.40 -1.35z"/>
  <path d="M127.15 329.70 c-0.15 -0.45 0.15 -1.25 0.80 -1.85 l1.05 -1.05 0 1.85 c0 1.35 -0.20 1.85 -0.75 1.85 -0.45 0 -0.90 -0.35 -1.10 -0.80z"/>
  <path d="M92 325.30 c0 -0.40 -0.20 -0.80 -0.50 -0.90 -0.70 -0.25 0.50 -4.40 1.30 -4.40 0.75 0 0.85 1.20 0.40 4.15 -0.30 1.75 -1.20 2.65 -1.20 1.15z"/>
  <path d="M130.50 323.10 c0 -1.75 0.55 -2.60 1.80 -2.60 1.10 0 1.15 0.05 0.45 1.65 -0.75 1.85 -2.25 2.45 -2.25 0.95z"/>
  <path d="M593 262.60 c0 -0.25 0.45 -0.85 1 -1.35 0.55 -0.50 1.25 -1.65 1.60 -2.55 0.95 -2.70 1.90 -2.15 1.90 1.10 0 2.20 -0.15 2.70 -0.65 2.30 -0.40 -0.35 -0.95 -0.30 -1.85 0.15 -1.45 0.85 -2 0.90 -2 0.35z"/>
  <path d="M522.50 245.45 c0 -0.60 -0.40 -1.40 -0.85 -1.75 -0.80 -0.60 -0.70 -0.65 1 -0.70 1.80 0 1.85 0.05 1.85 1.75 0 1.40 -0.20 1.75 -1 1.75 -0.70 0 -1 -0.35 -1 -1.05z"/>
  <path d="M530.50 244.95 c0 -0.35 -0.40 -0.90 -0.85 -1.25 -0.80 -0.60 -0.75 -0.65 0.50 -0.70 1.10 0 1.35 0.20 1.35 1.25 0 0.70 -0.20 1.25 -0.50 1.25 -0.25 0 -0.50 -0.25 -0.50 -0.55z"/>
  <path d="M526 244 c0 -0.65 0.35 -1 1 -1 0.55 0 1 0.05 1 0.15 0 0.05 -0.45 0.50 -1 1 -0.95 0.80 -1 0.80 -1 -0.15z"/>
  <path d="M312.05 218.30 c0.10 -0.10 1 -0.55 1.95 -1 l1.75 -0.85 -1.20 1.05 c-0.65 0.55 -1.50 1 -1.95 1 -0.40 0 -0.65 -0.10 -0.55 -0.20z"/>
  <path d="M381 207.60 c0 -0.60 0.95 -1.35 2.20 -1.80 0.80 -0.30 0.85 -0.20 0.30 0.45 -0.90 1.05 -2.50 1.90 -2.50 1.35z"/>
  <path d="M331.70 206.75 c0.55 -0.40 1.20 -0.75 1.50 -0.75 0.25 0 0.05 0.35 -0.50 0.75 -0.50 0.40 -1.15 0.70 -1.45 0.70 -0.25 0 -0.05 -0.30 0.45 -0.70z"/>
  <path d="M384.30 205.15 c-0.15 -0.15 0.50 -0.85 1.50 -1.55 2.30 -1.55 2.65 -1.20 0.50 0.50 -0.95 0.75 -1.80 1.20 -2 1.05z"/>
  <path d="M385.25 199.25 c2.40 -2.05 3.70 -2.50 1.50 -0.55 -1.10 0.95 -2.20 1.75 -2.50 1.80 -0.25 0 0.20 -0.55 1 -1.25z"/>
  <path d="M394 197.25 c0.35 -0.40 0.85 -0.75 1.10 -0.75 0.30 0 0.25 0.35 -0.10 0.75 -0.35 0.40 -0.85 0.75 -1.10 0.75 -0.30 0 -0.25 -0.35 0.10 -0.75z"/>
  <path d="M392.05 193.95 c-0.05 -0.45 -0.50 -1.20 -1.10 -1.75 -1.25 -1.15 -4.15 -4.70 -3.80 -4.70 0.65 0 5.40 6.05 5.20 6.60 -0.20 0.45 -0.30 0.40 -0.30 -0.15z"/>
  <path d="M420.65 173.10 c-1.65 -1.85 -3.65 -4.15 -4.45 -5.10 -0.80 -0.95 -1.60 -1.80 -1.80 -1.90 -0.20 -0.10 2.70 -2.95 6.50 -6.35 l6.85 -6.15 0.60 1.45 c0.40 0.95 0.45 1.90 0.20 2.60 -0.35 0.85 -5.40 5.75 -9.20 8.85 -0.50 0.40 1.60 4.40 3.20 6.10 l1.25 1.35 2.15 -1 c4.30 -1.90 3.95 -0.85 -0.75 2.45 l-1.55 1.05 -3 -3.35z"/>
  <path d="M643.65 161.65 c-2.45 -7.10 -5.20 -11.90 -7.95 -13.95 -1.10 -0.80 -2.10 -1.60 -2.25 -1.85 -0.55 -0.80 -0.45 -4.55 0.15 -4.95 0.45 -0.25 0.40 -0.40 -0.20 -0.40 -0.65 0 -0.90 -0.40 -0.90 -1.50 0 -2.60 1.35 -1.85 1.75 1 0.30 2.25 0.55 2.65 2.20 3.45 2.30 1.20 5.65 4.75 7.05 7.60 0.80 1.55 1.20 1.95 1.50 1.40 1.25 -2.35 2.10 -25.60 1.25 -34.75 -0.95 -10.20 -2.75 -17.20 -6.30 -24.45 -6.40 -13.05 -15.75 -19.35 -33.05 -22.30 -3.25 -0.55 -19.15 -0.40 -21.90 0.20 -0.70 0.15 -2.50 0.40 -4 0.60 -4.20 0.50 -14.05 2.50 -20.90 4.20 -5.35 1.35 -7.60 2.30 -17.25 7.25 -10.40 5.30 -13.95 7.20 -17.60 9.30 -0.80 0.45 -3.50 1.95 -5.95 3.25 -12.35 6.60 -34.90 20.55 -49.45 30.65 -8.70 6.05 -23.75 17.25 -28.45 21.20 -1.05 0.85 -2 1.50 -2.10 1.35 -0.10 -0.10 -0.30 -1.05 -0.50 -2.10 -0.45 -2.35 -0.55 -2.25 12.95 -12.35 20.15 -15.10 43.65 -30.25 65.50 -42.25 4.15 -2.25 8.30 -4.55 9.25 -5.10 1 -0.55 7.30 -3.85 14 -7.25 11.55 -5.95 12.65 -6.40 19.50 -8.05 15.30 -3.80 22.80 -4.85 35.50 -5.10 10.45 -0.20 16.90 0.65 24.20 3.15 20.65 7.15 31.05 27.10 31.05 59.60 0 5.50 -0.55 15.90 -0.95 18.50 -0.15 0.70 -0.35 2.60 -0.50 4.25 -0.50 4.70 -1.20 9.15 -1.55 9.75 -0.55 0.90 -3.75 0.60 -4.10 -0.35z"/>
  <path d="M439 160.80 c0 -0.45 7.90 -6.30 8.45 -6.30 0.30 0 0.55 -0.20 0.55 -0.50 0 -0.25 0.35 -0.50 0.80 -0.50 1.65 0 0.20 1.30 -4.70 4.35 -2.80 1.75 -5.10 3.05 -5.10 2.95z"/>
  <path d="M450.60 158.20 c-0.55 -0.60 -0.45 -0.70 0.40 -0.70 0.55 0 1 0.20 1 0.45 0 0.85 -0.75 0.95 -1.40 0.25z"/>
  <path d="M450.65 152.75 c-0.50 -0.50 -0.45 -0.70 0.10 -0.90 0.35 -0.15 0.80 0.05 0.95 0.40 0.35 1 -0.30 1.30 -1.05 0.50z"/>
  <path d="M458.50 147.30 c0 -0.60 6.70 -5.45 13.95 -10.05 0.40 -0.25 2.40 -1.55 4.40 -2.85 2 -1.35 3.75 -2.40 3.90 -2.40 0.75 0 -0.45 1 -3.85 3.30 -4.80 3.15 -4.95 3.30 -4.05 3.95 0.55 0.40 0.50 0.60 -0.30 1.10 -0.85 0.55 -0.95 0.50 -0.75 -0.10 0.20 -0.55 -0.05 -0.75 -0.80 -0.75 -0.80 0 -1 0.20 -0.80 0.80 0.40 1.05 -0.20 2 -0.70 1.20 -0.25 -0.35 -0.80 -0.50 -1.25 -0.30 -0.65 0.25 -0.70 0.50 -0.35 0.95 0.80 0.95 -4.25 3.90 -5.95 3.50 -1.05 -0.30 -1.10 -0.20 -0.55 0.45 0.50 0.65 0.45 0.80 -0.25 1.05 -0.50 0.10 -1.30 0.40 -1.75 0.60 -0.65 0.25 -0.90 0.10 -0.90 -0.45z"/>
  <path d="M490.40 144.60 c-0.25 -0.85 -0.10 -0.85 0.90 -0.40 1.45 0.65 1.55 1.30 0.25 1.30 -0.50 0 -1.05 -0.40 -1.15 -0.90z"/>
  <path d="M532 138.05 c0 -0.45 5.45 -0.15 5.95 0.25 0.10 0.10 -1.15 0.20 -2.85 0.20 -1.70 0 -3.10 -0.20 -3.10 -0.45z"/>
  <path d="M553.90 137.90 c0.40 -0.40 0.85 -0.40 1.70 0 1.10 0.50 1.05 0.55 -0.55 0.55 -1.35 0.05 -1.60 -0.10 -1.15 -0.55z"/>
  <path d="M632 136.20 c0 -0.15 0.35 -0.60 0.75 -1 0.65 -0.70 0.75 -0.65 0.75 0.25 0 0.60 -0.30 1.05 -0.75 1.05 -0.40 0 -0.75 -0.15 -0.75 -0.30z"/>
  <path d="M482.35 131.05 c1.15 -1.10 1.95 -1.40 1.40 -0.55 -0.15 0.25 -0.80 0.75 -1.40 1.05 l-1.10 0.55 1.10 -1.05z"/>
  <path d="M485.45 129.10 c0.70 -0.55 1.90 -1.35 2.75 -1.85 l1.55 -0.85 -1.20 1 c-0.70 0.55 -1.90 1.35 -2.75 1.85 l-1.55 0.85 1.20 -1z"/>
  <path d="M529 109.70 c0 -0.30 7.35 -3.90 9.10 -4.45 0.60 -0.20 1.25 -0.40 1.40 -0.50 0.15 -0.05 0.65 -0.25 1.15 -0.50 0.50 -0.20 1 -0.25 1.15 -0.15 0.10 0.15 -0.50 0.55 -1.40 0.90 -0.90 0.35 -2.90 1.20 -4.40 1.90 -5.50 2.45 -7 3.05 -7 2.80z"/>
  <path d="M544.25 103.10 c0.55 -0.55 6.25 -2.65 6.25 -2.30 0 0.25 -3.65 1.85 -5.50 2.45 -0.85 0.25 -1.10 0.20 -0.75 -0.15z"/>
  <path d="M542.80 99.25 c-0.15 -0.45 0 -0.75 0.45 -0.75 0.80 0 1 0.80 0.30 1.20 -0.25 0.15 -0.55 -0.05 -0.75 -0.45z"/>
  <path d="M544.60 98.65 c0.10 -0.50 0.55 -0.95 1.05 -1.05 1.20 -0.25 1.05 0.75 -0.20 1.40 -0.90 0.50 -1 0.45 -0.85 -0.35z"/>
  <path d="M547.55 97.45 c0.55 -1.10 1.95 -1.25 1.95 -0.25 0 0.35 -0.55 0.80 -1.25 0.90 -1.05 0.20 -1.15 0.15 -0.70 -0.65z"/>
  <path d="M551 96.70 c0 -0.40 0.45 -0.70 1 -0.70 0.55 0 1 0.20 1 0.45 0 0.25 -0.45 0.55 -1 0.70 -0.65 0.15 -1 0 -1 -0.45z"/>
  <path d="M555.50 95.75 c0 -0.40 0.35 -0.75 0.75 -0.75 0.40 0 0.75 0.20 0.75 0.45 0 0.25 -0.35 0.55 -0.75 0.75 -0.45 0.15 -0.75 0 -0.75 -0.45z"/>
  <path d="M560.50 94.50 c0 -0.25 0.55 -0.50 1.25 -0.50 0.70 0 1.25 0.25 1.25 0.50 0 0.30 -0.55 0.50 -1.25 0.50 -0.70 0 -1.25 -0.20 -1.25 -0.50z"/>
  <path d="M564.85 94.15 c0.30 -0.70 2.65 -0.90 2.65 -0.20 0 0.25 -0.65 0.55 -1.45 0.65 -1.05 0.15 -1.40 0.05 -1.20 -0.45z"/>
  <path d="M569 93.55 c0 -0.25 0.70 -0.60 1.55 -0.80 1.10 -0.25 1.80 -0.15 2.35 0.45 0.75 0.75 0.60 0.80 -1.55 0.80 -1.30 0 -2.35 -0.20 -2.35 -0.45z"/>
  <path d="M580 93.50 c0 -0.25 0.70 -0.50 1.50 -0.50 0.85 0 1.50 0.25 1.50 0.50 0 0.30 -0.65 0.50 -1.50 0.50 -0.80 0 -1.50 -0.20 -1.50 -0.50z"/>
 </g>
 <g fill="#221f20">
  <path d="M92 341 c0 -3.95 -0.10 -4.50 -0.85 -4.50 -0.75 0 -0.80 -0.10 -0.15 -0.50 0.60 -0.40 0.75 -2.45 0.90 -12.35 0.05 -6.55 0.20 -12.15 0.30 -12.45 0.15 -0.40 4.25 -0.50 13.40 -0.45 11.25 0.05 13.40 0.20 14.75 0.90 2.15 1.15 3.20 3.30 3.25 6.80 0.05 2.95 -0.50 4.50 -2.25 6.40 -0.90 1 -0.95 1.25 -0.30 2 1.60 2 2.15 3.55 2.20 6.30 0.05 1.55 0.30 2.90 0.55 2.95 0.70 0.10 3.75 -5.20 3.45 -6.15 -0.15 -0.45 0.15 -1.35 0.65 -2 0.45 -0.65 2.45 -5.10 4.30 -9.80 2.15 -5.30 3.75 -8.70 4.25 -8.85 0.45 -0.15 2.50 -0.40 4.55 -0.55 2.05 -0.15 4.15 -0.40 4.60 -0.55 1 -0.30 0.95 0 -0.60 3.55 -0.50 1.10 -1.85 4.30 -3 7.15 -1.15 2.80 -2.30 5.10 -2.55 5.10 -0.25 0 -0.40 0.15 -0.40 0.40 0.20 1.20 -0.15 2.10 -0.80 2.10 -0.80 0 -0.80 0 -0.95 2.30 -0.10 1.60 -1.75 5.20 -2.35 5.20 -0.55 0 -0.95 1.45 -0.65 2.25 0.20 0.40 0.70 0.75 1.15 0.80 0.55 0 0.45 0.15 -0.30 0.45 -0.70 0.30 -1.70 1.65 -2.50 3.35 l-1.40 2.90 -3.35 0.50 c-1.85 0.30 -3.50 0.65 -3.70 0.90 -0.20 0.20 -3.35 0.35 -6.95 0.35 -7.65 0 -8.20 -0.25 -8.65 -4.35 -0.15 -1.30 -0.40 -2.50 -0.65 -2.65 -0.20 -0.15 -0.20 -1.10 0.05 -2.15 0.35 -1.70 -0.10 -2.90 -0.85 -2.20 -0.55 0.60 -1.10 4.10 -0.65 4.25 0.30 0.10 0.50 1.75 0.50 3.65 l0 3.45 -7.50 0 -7.50 0 0 -4.50z m13 -3.25 c0 -6.35 0.20 -6.75 2.85 -5.90 1.75 0.60 2.60 2.80 2.60 7 0.05 4.80 -0.15 4.65 6.15 4.65 l5.55 0 -0.30 -5.65 c-0.30 -6.90 -1.10 -9.10 -3.60 -10.15 -1 -0.40 -2.20 -0.70 -2.65 -0.65 -1.75 0.15 -2.15 -0.05 -2 -1.10 0.10 -0.85 0.55 -1.10 1.90 -1.20 2.75 -0.20 4.40 -1.05 5.30 -2.80 1.55 -3.05 0.55 -7.95 -1.85 -8.70 -0.55 -0.20 -6.35 -0.35 -12.80 -0.30 l-11.75 0 -0.15 14.90 c-0.05 8.20 0 15.05 0.10 15.30 0.10 0.20 2.55 0.35 5.45 0.35 l5.20 0 0 -5.75z m23.80 4.25 c0.80 0 1.35 -0.40 1.65 -1.10 0.25 -0.65 1.05 -2.50 1.75 -4.15 2 -4.45 1.90 -4.20 6.50 -15.30 2.35 -5.65 4.30 -10.40 4.30 -10.55 0 -0.55 -5.25 0.15 -5.80 0.75 -0.30 0.35 -1.40 2.80 -2.45 5.50 -1.05 2.65 -2.15 4.85 -2.35 4.85 -0.25 0 -0.35 0.20 -0.20 0.45 0.15 0.25 -1.40 4.65 -3.45 9.75 -2.05 5.10 -3.75 9.50 -3.75 9.75 0 0.60 2.20 0.95 2.40 0.45 0.10 -0.25 0.75 -0.40 1.40 -0.40z"/>
  <path d="M105.20 326.10 c-0.30 -0.20 -0.50 -1.80 -0.50 -3.60 l0.05 -3.25 1.80 -0.15 c2.55 -0.20 4.15 1.20 4.15 3.65 0 1.35 -0.30 2.15 -1.15 2.80 -1.20 0.95 -3.35 1.25 -4.35 0.55z m3.30 -3.60 c0 -1 -0.25 -1.50 -0.75 -1.50 -0.90 0 -1.50 1.20 -1.05 2.25 0.50 1.40 1.80 0.85 1.80 -0.75z"/>
  <path d="M472.55 261.90 c-0.25 -0.65 -1.50 -4.90 -2.80 -9.50 -1.95 -6.80 -2.60 -8.40 -3.45 -8.70 -0.70 -0.25 0.05 -0.45 2.40 -0.55 3.45 -0.20 4.55 0.05 3.35 0.80 -0.50 0.35 -0.35 1.60 0.85 6.25 0.80 3.20 1.55 5.95 1.70 6.10 0.30 0.25 2.90 -10.15 2.90 -11.55 0 -0.40 -0.35 -0.75 -0.75 -0.75 -0.40 0 -0.75 -0.20 -0.75 -0.50 0 -0.30 2.85 -0.50 7.50 -0.50 l7.50 0 -0.05 4.40 c-0.05 2.40 -0.20 3.70 -0.30 2.85 -0.50 -3.65 -1.20 -5.30 -2.45 -5.75 -2.55 -1 -2.70 -0.80 -2.70 3.50 0 2.20 0.20 4 0.40 4 0.80 0 2 -1.75 2.25 -3.25 0.10 -0.80 0.20 1.10 0.20 4.25 0.05 4.50 -0.05 5.30 -0.40 3.55 -0.40 -2.15 -1.20 -3.55 -2 -3.55 -0.25 0 -0.45 2.05 -0.45 4.50 0 4.80 0.25 5.20 2.40 3.70 1.55 -1.05 2.20 -2.50 2.60 -5.70 0.30 -2.40 0.40 -2.10 0.45 2.40 l0.05 5.10 -5.60 0 c-4.80 -0.05 -5.50 -0.15 -4.75 -0.70 0.75 -0.60 0.85 -1.65 0.85 -9.50 0 -8.40 -0.05 -8.80 -1 -8.80 -1.35 0 -1.60 0.70 -3.70 9.75 -1.05 4.40 -1.95 8.30 -2.05 8.65 -0.35 1 -1.75 0.70 -2.20 -0.50z"/>
  <path d="M493 262.55 c0 -0.25 0.35 -0.55 0.75 -0.75 0.65 -0.20 0.75 -1.70 0.75 -9.05 0 -7.45 -0.10 -8.75 -0.75 -8.75 -0.40 0 -0.75 -0.25 -0.75 -0.55 0 -0.30 0.85 -0.45 2.15 -0.35 l2.10 0.15 3.10 5.50 3.15 5.50 0 -4.95 c0 -4.10 -0.15 -5.05 -0.85 -5.60 -0.80 -0.60 -0.60 -0.65 1.60 -0.65 2.20 0 2.40 0.05 1.65 0.65 -0.80 0.60 -0.90 1.70 -0.90 10 0 7.65 -0.15 9.30 -0.70 9.30 -0.40 0 -2.30 -2.90 -4.25 -6.50 -2 -3.55 -3.80 -6.60 -4.05 -6.75 -0.30 -0.20 -0.50 2.10 -0.50 5.95 0 5.25 0.10 6.30 0.75 6.30 0.40 0 0.75 0.25 0.75 0.50 0 0.30 -0.90 0.50 -2 0.50 -1.10 0 -2 -0.20 -2 -0.45z"/>
  <path d="M508.15 262.45 c0.75 -0.45 0.85 -1.45 0.85 -9.30 0 -7.80 -0.10 -8.85 -0.85 -9.45 -0.80 -0.55 -0.35 -0.65 3.10 -0.70 4.75 0 6.05 0.60 7.45 3.25 1.20 2.35 1.40 9.35 0.35 12.35 -0.65 2 -2.65 3.90 -4 3.90 -0.60 0 -0.65 -0.10 -0.15 -0.40 0.45 -0.35 0.60 -2.50 0.50 -9.15 l-0.15 -8.70 -1.35 -0.15 -1.40 -0.15 0 9.50 0 9.55 -2.60 0 c-2.05 -0.05 -2.45 -0.15 -1.75 -0.55z"/>
  <path d="M521.50 262.55 c0 -0.25 0.20 -0.55 0.50 -0.65 0.50 -0.15 0.80 -17.25 0.30 -17.75 -0.80 -0.80 -0.05 -1.15 2.45 -1.15 1.50 0 2.75 0.25 2.75 0.50 0 0.30 -0.20 0.50 -0.50 0.50 -0.30 0 -0.50 3.25 -0.50 8.80 0 7.85 0.10 8.90 0.90 9.50 0.75 0.60 0.40 0.65 -2.50 0.70 -1.90 0 -3.40 -0.20 -3.40 -0.45z"/>
  <path d="M529.50 262.50 c0 -0.25 0.25 -0.50 0.55 -0.50 0.35 0 0.45 -3.05 0.35 -9.50 l-0.15 -9.50 1.60 0 c1.50 0 1.75 0.30 4.45 5.20 1.60 2.90 3.10 5.10 3.30 5 0.20 -0.15 0.40 -2.15 0.40 -4.50 0 -3.30 -0.15 -4.30 -0.75 -4.50 -1.40 -0.55 -0.75 -1.20 1.25 -1.20 2 0 2.65 0.65 1.25 1.20 -0.65 0.20 -0.75 1.75 -0.75 9.60 0 7 -0.15 9.25 -0.60 9.10 -0.65 -0.25 -1.35 -1.35 -5.50 -8.90 l-2.65 -4.75 -0.15 6.20 c-0.10 5.45 -0.05 6.25 0.75 6.85 0.80 0.60 0.65 0.65 -1.20 0.70 -1.20 0 -2.15 -0.20 -2.15 -0.50z"/>
  <path d="M548.25 262.55 c-1.45 -0.60 -2.55 -2 -3.80 -4.80 -1.90 -4.25 -0.85 -10.75 2.20 -14.10 1.35 -1.50 4 -2 5.55 -1 0.85 0.60 1.30 0.65 1.75 0.20 0.40 -0.40 0.55 0.50 0.50 3.65 l-0.05 4.25 -0.75 -2.50 c-1.60 -5.20 -4.05 -6.80 -5.45 -3.50 -0.85 2.15 -0.90 12.70 -0.05 15.25 0.70 2 2.20 2.55 3.20 1.20 0.95 -1.35 0.90 -8.20 -0.10 -8.20 -0.40 0 -0.75 -0.20 -0.75 -0.50 0 -0.30 1.35 -0.50 3 -0.50 1.65 0 3 0.20 3 0.50 0 0.30 -0.20 0.50 -0.50 0.50 -0.30 0 -0.50 1.45 -0.50 3.40 0 2.90 -0.15 3.60 -1.10 4.45 -2.30 2.05 -4.05 2.55 -6.15 1.70z"/>
  <path d="M562.40 262.40 c0.75 -0.75 0.85 -18.40 0.10 -18.40 -0.25 0 -0.50 -0.20 -0.50 -0.50 0 -0.30 1.45 -0.50 3.40 -0.50 2.90 0.05 3.25 0.10 2.50 0.70 -0.80 0.60 -0.90 1.70 -0.90 9.75 0 4.95 0.10 9.05 0.25 9.05 0.85 0 3.20 -1.60 3.55 -2.35 0.20 -0.50 0.55 -2.45 0.70 -4.40 0.35 -3.35 0.35 -3.30 0.40 1.90 l0.10 5.35 -5.10 0 c-3.95 0 -4.95 -0.15 -4.50 -0.60z"/>
  <path d="M574.15 262.45 c0.75 -0.45 0.85 -1.45 0.85 -9.45 0 -5.65 -0.20 -9 -0.50 -9 -0.25 0 -0.50 -0.20 -0.50 -0.50 0 -0.30 1.45 -0.50 3.40 -0.50 2.90 0.05 3.25 0.10 2.50 0.70 -0.80 0.60 -0.90 1.70 -0.90 9.75 0 4.95 0.10 9.05 0.25 9.05 0.20 0 0.90 -0.30 1.70 -0.70 1.75 -0.95 2.55 -2.70 2.65 -6.20 0.05 -2.05 0.15 -1.55 0.35 1.90 0.15 2.60 0.25 4.90 0.15 5.15 -0.10 0.20 -2.55 0.35 -5.50 0.35 -3.90 -0.05 -5.10 -0.15 -4.45 -0.55z"/>
  <path d="M589.80 261.50 c-2.25 -2 -3.35 -4.90 -3.35 -9 -0.05 -7.20 4.20 -12 8.60 -9.75 1.30 0.70 1.65 0.75 2 0.15 0.25 -0.40 0.45 1.15 0.45 3.75 0 4.45 -0.60 5.50 -1.20 1.95 -0.35 -2.25 -2.20 -5.25 -3.40 -5.50 -0.45 -0.10 -1.20 0.40 -1.70 1.15 -0.70 1.10 -0.90 2.50 -0.90 7.65 0 7.05 0.65 10.10 2.20 10.10 1.35 0 3.30 -2.85 4 -5.85 0.30 -1.45 0.70 -2.65 0.80 -2.65 0.10 0 0.20 1.35 0.20 2.95 0 2 -0.25 3.25 -0.75 3.75 -0.40 0.40 -0.75 0.90 -0.75 1.15 0 0.50 -2.45 1.65 -3.60 1.65 -0.45 0 -1.65 -0.70 -2.60 -1.50z"/>
  <path d="M389.25 190.10 c-0.25 -0.20 -0.85 -0.80 -1.25 -1.35 -0.55 -0.75 -0.35 -0.70 0.65 0.20 1.20 1.10 1.60 1.55 1.25 1.55 -0.10 0 -0.35 -0.20 -0.65 -0.40z"/>
  <path d="M643.75 153.05 c0.15 -0.30 0.50 -0.45 0.75 -0.30 0.20 0.15 0.55 0 0.65 -0.25 0.15 -0.30 0.20 -0.25 0.15 0.10 -0.05 0.35 -0.55 0.75 -1.05 0.80 -0.55 0.15 -0.75 0 -0.50 -0.35z"/>
  <path d="M439 148.30 c0 -0.45 0.35 -0.80 0.80 -0.80 0.45 0 0.70 0.25 0.60 0.60 -0.30 0.90 -1.40 1.05 -1.40 0.20z"/>
  <path d="M478.75 147.55 c0.85 -0.75 3.35 -1.15 3.15 -0.50 -0.10 0.30 -0.95 0.70 -1.90 0.80 -1 0.10 -1.50 0 -1.25 -0.30z"/>
  <path d="M458.85 147.20 c-0.20 -0.20 -0.20 -0.50 -0.05 -0.75 0.30 -0.50 1.70 0 1.70 0.60 0 0.50 -1.20 0.60 -1.65 0.15z"/>
  <path d="M524 112.30 c0 -0.15 0.70 -0.60 1.50 -1.05 0.85 -0.45 1.50 -0.65 1.50 -0.55 0 0.15 -0.65 0.60 -1.50 1.05 -0.80 0.45 -1.50 0.65 -1.50 0.55z"/>
  <path d="M538.75 104.95 c0.20 -0.25 0.50 -0.35 0.75 -0.20 0.25 0.15 0.55 0.05 0.75 -0.25 0.15 -0.25 0.55 -0.50 0.90 -0.50 0.35 0 0.40 0.15 0.05 0.50 -0.70 0.70 -2.80 1.10 -2.45 0.45z"/>
  <path d="M544.50 98.50 c0 -0.25 0.35 -0.50 0.75 -0.50 0.40 0 0.75 0.25 0.75 0.50 0 0.30 -0.35 0.50 -0.75 0.50 -0.40 0 -0.75 -0.20 -0.75 -0.50z"/>
  <path d="M551 96.50 c0 -0.25 0.45 -0.50 1 -0.50 0.55 0 1 0.25 1 0.50 0 0.30 -0.45 0.50 -1 0.50 -0.55 0 -1 -0.20 -1 -0.50z"/>
  <path d="M518.80 95.25 c-0.15 -0.45 0 -0.75 0.45 -0.75 0.80 0 1 0.80 0.30 1.20 -0.25 0.15 -0.55 -0.05 -0.75 -0.45z"/>
  <path d="M540.25 83.50 c-0.15 -0.25 0.05 -0.50 0.45 -0.50 0.40 0 0.90 0.25 1.05 0.50 0.15 0.30 -0.05 0.50 -0.45 0.50 -0.40 0 -0.90 -0.20 -1.05 -0.50z"/>
  <path d="M542.25 82.50 c-0.15 -0.25 0.05 -0.50 0.45 -0.50 0.40 0 0.90 0.25 1.05 0.50 0.15 0.30 -0.05 0.50 -0.45 0.50 -0.40 0 -0.90 -0.20 -1.05 -0.50z"/>
  <path d="M565 74 c0 -0.25 0.30 -0.50 0.70 -0.50 0.40 0 0.90 0.25 1.05 0.50 0.15 0.30 -0.15 0.50 -0.70 0.50 -0.60 0 -1.05 -0.20 -1.05 -0.50z"/>
  <path d="M575 72 c0 -0.65 1 -0.65 2 0 0.60 0.40 0.45 0.50 -0.60 0.50 -0.80 0 -1.40 -0.20 -1.40 -0.50z"/>
  <path d="M582 70.70 c0 -0.45 0.35 -0.70 0.85 -0.60 1.25 0.25 1.40 1.40 0.20 1.40 -0.60 0 -1.05 -0.30 -1.05 -0.80z"/>
  <path d="M586.50 70.50 c0 -0.25 0.35 -0.50 0.75 -0.50 0.40 0 0.75 0.25 0.75 0.50 0 0.30 -0.35 0.50 -0.75 0.50 -0.40 0 -0.75 -0.20 -0.75 -0.50z"/>
  <path d="M594 69.80 c0 -0.55 0.55 -0.70 2.15 -0.55 1.15 0.10 2.60 0.20 3.25 0.20 0.60 0.05 1.10 0.30 1.10 0.55 0 0.30 -1.40 0.50 -3.25 0.50 -2.50 0 -3.25 -0.15 -3.25 -0.70z"/>
 </g>
</svg>